<?xml version="1.0" encoding="UTF-8" standalone="no"?><!DOCTYPE svg PUBLIC "-//W3C//DTD SVG 1.1//EN" "http://www.w3.org/Graphics/SVG/1.1/DTD/svg11.dtd"><svg width="100%" height="100%" viewBox="0 0 5906 8268" version="1.1" xmlns="http://www.w3.org/2000/svg" xmlns:xlink="http://www.w3.org/1999/xlink" xml:space="preserve" xmlns:serif="http://www.serif.com/" style="fill-rule:evenodd;clip-rule:evenodd;stroke-linejoin:round;stroke-miterlimit:2;"><rect x="0" y="0" width="5905.51" height="8267.72" style="fill:#fff;"/><g><g transform="matrix(1,0,0,0.941906,0,61.6632)"><text x="592.805px" y="7893.75px" style="font-family:'', 'BIOWEAPON', sans-serif;font-size:141.557px;">C<tspan x="843.985px 1119.57px 1391px 1588.06px 1853.41px 2111.36px 2394.48px 2649.11px 2924.69px 3200.27px " y="7893.75px 7893.75px 7893.75px 7893.75px 7893.75px 7893.75px 7893.75px 7893.75px 7893.75px 7893.75px ">OMING SOON</tspan></text></g><g transform="matrix(1.19048,0,0,1.12132,-1253.4,1130.49)"><text x="1555.6px" y="5850.61px" style="font-family:'Raleway-Medium', 'Raleway';font-weight:500;font-size:92.897px;fill:#b1b1b1;">o<tspan x="1629.82px 1699.4px 1772.88px 1842.93px 1916.32px 1981.62px 2051.2px 2125.43px 2170.58px 2215.72px 2289.2px 2359.25px 2410.53px 2450.47px 2524.7px " y="5850.61px 5850.61px 5850.61px 5850.61px 5850.61px 5850.61px 5850.61px 5850.61px 5850.61px 5850.61px 5850.61px 5850.61px 5850.61px 5850.61px 5850.61px ">cean_collection</tspan></text><text x="1555.6px" y="5962.09px" style="font-family:'Raleway-Medium', 'Raleway';font-weight:500;font-size:92.897px;fill:#b1b1b1;">©<tspan x="1651.84px 1702.28px 1771.49px 1816.64px 1886.68px 1960.91px 2065.32px 2107.41px 2148.28px 2190.36px 2258.64px 2334.26px 2402.54px " y="5962.09px 5962.09px 5962.09px 5962.09px 5962.09px 5962.09px 5962.09px 5962.09px 5962.09px 5962.09px 5962.09px 5962.09px 5962.09px ">fylaom | 2022</tspan></text></g><rect x="0" y="7199.59" width="5905.51" height="1068.13" style="fill:none;"/></g></svg>