<?xml version="1.0" encoding="UTF-8" standalone="no"?>
<!DOCTYPE svg PUBLIC "-//W3C//DTD SVG 1.1//EN" "http://www.w3.org/Graphics/SVG/1.1/DTD/svg11.dtd">
<svg width="100%" height="100%" viewBox="0 0 79 80" version="1.1" xmlns="http://www.w3.org/2000/svg" xmlns:xlink="http://www.w3.org/1999/xlink" xml:space="preserve" xmlns:serif="http://www.serif.com/" style="fill-rule:evenodd;clip-rule:evenodd;stroke-linejoin:round;stroke-miterlimit:2;">
    <g transform="matrix(1,0,0,1,-17729.3,-1931.34)">
        <g>
            <path d="M17738.3,1945.36C17751.6,1928.45 17775.6,1928.28 17789.2,1937.19C17808.2,1949.71 17810.4,1969.45 17806,1983.7C17800.1,2002.82 17779.2,2011.34 17765.8,2010.79C17743.7,2009.9 17737.2,1998.32 17741.2,1986.75C17743,1981.35 17740.8,1972.02 17735.3,1970.56C17725.8,1968.04 17728.3,1958.18 17738.3,1945.36ZM17777.8,1984.01C17781.3,1983.72 17784.5,1986.38 17784.8,1989.93C17785,1993.48 17782.4,1996.6 17778.8,1996.88C17775.3,1997.17 17772.2,1994.51 17771.9,1990.96C17771.6,1987.41 17774.2,1984.29 17777.8,1984.01ZM17756.4,1981.03C17760,1980.74 17763.1,1983.39 17763.4,1986.95C17763.7,1990.5 17761,1993.62 17757.5,1993.9C17753.9,1994.19 17750.8,1991.53 17750.5,1987.98C17750.2,1984.43 17752.9,1981.31 17756.4,1981.03ZM17791.2,1967.4C17794.7,1967.12 17797.8,1969.77 17798.1,1973.33C17798.4,1976.88 17795.7,1979.99 17792.2,1980.28C17788.6,1980.56 17785.5,1977.91 17785.2,1974.36C17784.9,1970.81 17787.6,1967.69 17791.2,1967.4ZM17748.9,1950.99C17752.5,1950.7 17755.6,1953.36 17755.9,1956.91C17756.2,1960.46 17753.5,1963.58 17750,1963.86C17746.4,1964.15 17743.3,1961.5 17743,1957.94C17742.7,1954.39 17745.4,1951.27 17748.9,1950.99ZM17784.7,1948.12C17788.2,1947.84 17791.3,1950.49 17791.6,1954.04C17791.9,1957.59 17789.3,1960.71 17785.7,1960.99C17782.1,1961.28 17779,1958.63 17778.7,1955.07C17778.5,1951.52 17781.1,1948.4 17784.7,1948.12ZM17766.4,1941.12C17769.9,1940.84 17773,1943.49 17773.3,1947.05C17773.6,1950.6 17770.9,1953.71 17767.4,1954C17763.8,1954.28 17760.7,1951.63 17760.4,1948.08C17760.1,1944.53 17762.8,1941.41 17766.4,1941.12Z" style="fill:rgb(218,218,218);"/>
        </g>
    </g>
</svg>
