<?xml version="1.0" encoding="UTF-8" standalone="no"?>
<!DOCTYPE svg PUBLIC "-//W3C//DTD SVG 1.1//EN" "http://www.w3.org/Graphics/SVG/1.1/DTD/svg11.dtd">
<svg width="100%" height="100%" viewBox="0 0 587 436" version="1.1" xmlns="http://www.w3.org/2000/svg" xmlns:xlink="http://www.w3.org/1999/xlink" xml:space="preserve" xmlns:serif="http://www.serif.com/" style="fill-rule:evenodd;clip-rule:evenodd;stroke-linejoin:round;stroke-miterlimit:2;">
    <g transform="matrix(1,0,0,1,-15484.7,-2866.61)">
        <g transform="matrix(1,0,0,1,-1696.02,-109.616)">
            <g transform="matrix(1,0,0,1,1696.02,109.616)">
                <path d="M15778.2,2894.4C15809.9,2893.95 15840.1,2897.92 15869.4,2904.63L15861.8,2866.61C15909.2,2873.64 15949.2,2887.4 15984.8,2905.17C16041,3022.59 16062,3135.48 16071.7,3246.93C16017.7,3277.47 15963.3,3298.58 15908.1,3301.67L15908.1,3256.19C15871.2,3270.49 15806.4,3268.97 15778.2,3268.97L15778.2,2894.4ZM15874.7,3058.41C15902.4,3058.41 15924.9,3084.84 15924.9,3117.4C15924.9,3149.96 15902.4,3176.39 15874.7,3176.39C15847,3176.39 15824.6,3149.96 15824.6,3117.4C15824.6,3084.84 15847,3058.41 15874.7,3058.41Z" style="fill:rgb(218,218,218);"/>
            </g>
            <g transform="matrix(1,0,0,1,1696.02,109.616)">
                <path d="M15778.2,2894.4C15746.5,2893.95 15716.3,2897.92 15687,2904.63L15694.6,2866.61C15647.1,2873.64 15607.1,2887.4 15571.6,2905.17C15515.3,3022.59 15494.4,3135.48 15484.7,3246.93C15538.7,3277.47 15593.1,3298.58 15648.2,3301.67L15648.2,3256.19C15685.2,3270.49 15750,3268.97 15778.2,3268.97L15778.2,2894.4ZM15681.6,3058.41C15653.9,3058.41 15631.4,3084.84 15631.4,3117.4C15631.4,3149.96 15653.9,3176.39 15681.6,3176.39C15709.3,3176.39 15731.8,3149.96 15731.8,3117.4C15731.8,3084.84 15709.3,3058.41 15681.6,3058.41Z" style="fill:rgb(218,218,218);"/>
            </g>
        </g>
    </g>
</svg>
