<?xml version="1.0" encoding="UTF-8" standalone="no"?>
<!DOCTYPE svg PUBLIC "-//W3C//DTD SVG 1.1//EN" "http://www.w3.org/Graphics/SVG/1.1/DTD/svg11.dtd">
<svg width="100%" height="100%" viewBox="0 0 351 469" version="1.1" xmlns="http://www.w3.org/2000/svg" xmlns:xlink="http://www.w3.org/1999/xlink" xml:space="preserve" xmlns:serif="http://www.serif.com/" style="fill-rule:evenodd;clip-rule:evenodd;stroke-linejoin:round;stroke-miterlimit:2;">
    <g transform="matrix(1,0,0,1,-21316.6,-3121.15)">
        <g transform="matrix(0.976278,0.212829,-2.25163,10.0908,20828.4,-789.427)">
            <g transform="matrix(1,0,0,0.0967995,-18598.4,0)">
                <path d="M20150.7,3683.6C20315.8,3684.07 20289.8,3669.26 20290.9,3890.55C20291.6,4034.34 20325.9,4140.83 20141.2,4137.12C19986.6,4134.02 20015.8,4187.35 20015.7,3892.75C20015.6,3672.12 19992.4,3683.14 20150.7,3683.6Z" style="fill:rgb(237,235,237);"/>
                <clipPath id="_clip1">
                    <path d="M20150.7,3683.6C20315.8,3684.07 20289.8,3669.26 20290.9,3890.55C20291.6,4034.34 20325.9,4140.83 20141.2,4137.12C19986.6,4134.02 20015.8,4187.35 20015.7,3892.75C20015.6,3672.12 19992.4,3683.14 20150.7,3683.6Z"/>
                </clipPath>
                <g clip-path="url(#_clip1)">
                    <path d="M20303.1,3953.3C20298.9,4045.53 20144.9,4123.41 20047.7,4145.91L20342.2,4154.14L20303.1,3953.3Z" style="fill:rgb(224,221,224);"/>
                    <path d="M19999.1,3991.13C19999.1,3991.13 20035.9,3865.1 20082.1,3823.03C20152,3759.46 20348.5,3719.26 20348.5,3719.26L20256.6,3636.25L19990.1,3645.94L19987.4,3845.17L19999.1,3991.13Z" style="fill:rgb(246,245,246);"/>
                    <path d="M20011.5,3702.12C20061.1,3707.4 20254.5,3707.47 20302.8,3703.33C20311.5,3702.58 20310.3,3678.19 20301.6,3677.28C20252,3672 20053.4,3667.52 20005.1,3671.66C19994.7,3672.55 20001.2,3701.03 20011.5,3702.12Z" style="fill:rgb(206,200,206);"/>
                    <clipPath id="_clip2">
                        <path d="M20011.5,3702.12C20061.1,3707.4 20254.5,3707.47 20302.8,3703.33C20311.5,3702.58 20310.3,3678.19 20301.6,3677.28C20252,3672 20053.4,3667.52 20005.1,3671.66C19994.7,3672.55 20001.2,3701.03 20011.5,3702.12Z"/>
                    </clipPath>
                    <g clip-path="url(#_clip2)">
                        <path d="M19997.3,3772.49C19987,3701.85 20103,3687.94 20288.3,3688.11L20114.6,3649.68L19985.8,3690.48L19997.3,3772.49Z" style="fill:rgb(215,210,215);"/>
                    </g>
                    <path d="M20042.5,3880.57C20042.5,3880.57 20049.1,3918.88 20086.2,3916.13C20131.6,3912.78 20220,3921.71 20242.4,3911.22C20269.7,3898.41 20274.5,3854.63 20271.8,3837.5L20042.5,3880.57Z" style="fill:rgb(219,215,219);"/>
                </g>
            </g>
            <g transform="matrix(1,0,0,0.0967995,-18598.4,0)">
                <path d="M20157.2,3716.82C20283.4,3716.41 20268.4,3700.39 20271.4,3779.2C20274.9,3871.8 20282.7,3901.61 20162.4,3895.41C20014,3887.77 20035.3,3921.34 20035.7,3807.56C20036.1,3702.77 20008.6,3717.31 20157.2,3716.82Z" style="fill:rgb(134,131,149);"/>
                <clipPath id="_clip3">
                    <path d="M20157.2,3716.82C20283.4,3716.41 20268.4,3700.39 20271.4,3779.2C20274.9,3871.8 20282.7,3901.61 20162.4,3895.41C20014,3887.77 20035.3,3921.34 20035.7,3807.56C20036.1,3702.77 20008.6,3717.31 20157.2,3716.82Z"/>
                </clipPath>
                <g clip-path="url(#_clip3)">
                    <path d="M20281.4,3715.22C20281.4,3715.22 20272.4,3826.2 20209.9,3858.58C20148.4,3890.46 19987.4,3886.07 19987.4,3886.07L20109.2,3927.5L20257.2,3925.43L20328.5,3793.99L20281.4,3715.22Z" style="fill:rgb(118,114,134);"/>
                    <path d="M20027.4,3834.8C20027.4,3834.8 20036.9,3762.07 20069.3,3743.07C20113.1,3717.33 20248.9,3711.08 20248.9,3711.08L20008.3,3705.06L20027.4,3834.8Z" style="fill:rgb(145,142,158);"/>
                </g>
            </g>
            <g transform="matrix(1,0,0,0.0967995,-18598.4,0)">
                <path d="M20147.8,3737.89C20248.3,3736.58 20230.2,3733.02 20229.6,3809.77C20228.9,3887.57 20241.7,3874 20153.4,3874.21C20075,3874.41 20076.3,3886.28 20078.2,3810.41C20080.2,3733.68 20062.3,3739 20147.8,3737.89Z" style="fill:rgb(184,185,140);"/>
                <clipPath id="_clip4">
                    <path d="M20147.8,3737.89C20248.3,3736.58 20230.2,3733.02 20229.6,3809.77C20228.9,3887.57 20241.7,3874 20153.4,3874.21C20075,3874.41 20076.3,3886.28 20078.2,3810.41C20080.2,3733.68 20062.3,3739 20147.8,3737.89Z"/>
                </clipPath>
                <g clip-path="url(#_clip4)">
                    <path d="M20073.6,3854.24C20073.6,3854.24 20089.2,3804.95 20129.4,3782.62C20170.5,3759.77 20250.2,3744.64 20250.2,3744.64L20153.4,3715.22L20069.2,3721.98L20073.6,3854.24Z" style="fill:rgb(169,170,116);"/>
                </g>
            </g>
            <g transform="matrix(1,0,0,0.0967995,-18600,0.299591)">
                <path d="M20060.7,3977.69C20064.6,3973.93 20058,3960.24 20061.9,3956.76C20065.8,3953.27 20080.4,3953.27 20084.1,3956.76C20087.8,3960.24 20080.6,3974.03 20084.3,3977.69C20088,3981.35 20102.9,3974.54 20106.5,3978.71C20110,3982.89 20109.2,3998.62 20105.6,4002.72C20102.1,4006.83 20088.7,3999.68 20085.1,4003.34C20081.5,4007 20087.9,4021.36 20084.1,4024.68C20080.3,4028 20066.1,4027.04 20062.1,4023.24C20058.2,4019.45 20064.3,4005.32 20060.3,4001.9C20056.3,3998.48 20041.9,4006.48 20038.3,4002.72C20034.7,3998.96 20035,3983.5 20038.7,3979.33C20042.5,3975.16 20056.8,3981.45 20060.7,3977.69Z" style="fill:rgb(153,140,150);"/>
            </g>
            <g transform="matrix(1,0,0,0.0967995,-18598.4,0)">
                <path d="M20060.7,3977.69C20064.6,3973.93 20058,3960.24 20061.9,3956.76C20065.8,3953.27 20080.4,3953.27 20084.1,3956.76C20087.8,3960.24 20080.6,3974.03 20084.3,3977.69C20088,3981.35 20102.9,3974.54 20106.5,3978.71C20110,3982.89 20109.2,3998.62 20105.6,4002.72C20102.1,4006.83 20088.7,3999.68 20085.1,4003.34C20081.5,4007 20087.9,4021.36 20084.1,4024.68C20080.3,4028 20066.1,4027.04 20062.1,4023.24C20058.2,4019.45 20064.3,4005.32 20060.3,4001.9C20056.3,3998.48 20041.9,4006.48 20038.3,4002.72C20034.7,3998.96 20035,3983.5 20038.7,3979.33C20042.5,3975.16 20056.8,3981.45 20060.7,3977.69Z" style="fill:rgb(179,170,178);"/>
                <clipPath id="_clip5">
                    <path d="M20060.7,3977.69C20064.6,3973.93 20058,3960.24 20061.9,3956.76C20065.8,3953.27 20080.4,3953.27 20084.1,3956.76C20087.8,3960.24 20080.6,3974.03 20084.3,3977.69C20088,3981.35 20102.9,3974.54 20106.5,3978.71C20110,3982.89 20109.2,3998.62 20105.6,4002.72C20102.1,4006.83 20088.7,3999.68 20085.1,4003.34C20081.5,4007 20087.9,4021.36 20084.1,4024.68C20080.3,4028 20066.1,4027.04 20062.1,4023.24C20058.2,4019.45 20064.3,4005.32 20060.3,4001.9C20056.3,3998.48 20041.9,4006.48 20038.3,4002.72C20034.7,3998.96 20035,3983.5 20038.7,3979.33C20042.5,3975.16 20056.8,3981.45 20060.7,3977.69Z"/>
                </clipPath>
                <g clip-path="url(#_clip5)">
                    <path d="M20035.8,4010.37C20036.5,4009.1 20040.8,3992.73 20047.2,3989.14C20056.3,3984.08 20063.4,3987.63 20066.9,3984.7C20070.4,3981.77 20070.5,3974.15 20075.8,3966.95C20079.6,3961.79 20100,3954.14 20100,3954.14L20066.4,3942.23L20039.6,3957.24L20027.1,3982.01C20027.1,3982.01 20035.1,4011.64 20035.8,4010.37Z" style="fill:rgb(193,186,192);"/>
                </g>
            </g>
            <g transform="matrix(1.0051,0,0,0.105363,-18701.4,-33.8495)">
                <path d="M20241.5,4008.32C20259.4,3999.44 20292.7,3990.64 20275.4,3964.33C20259.4,3940.19 20233.6,3960.79 20218.6,3966.95C20181.6,3982.11 20182.3,3996.38 20188.8,4008.98C20199.4,4029.44 20215.4,4021.27 20241.5,4008.32Z" style="fill:rgb(173,163,171);"/>
            </g>
            <g transform="matrix(1,0,0,0.0967995,-18598.4,0)">
                <path d="M20241.5,4008.32C20259.4,3999.44 20292.7,3990.64 20275.4,3964.33C20259.4,3940.19 20233.6,3960.79 20218.6,3966.95C20181.6,3982.11 20182.3,3996.38 20188.8,4008.98C20199.4,4029.44 20215.4,4021.27 20241.5,4008.32Z" style="fill:rgb(199,192,197);"/>
                <clipPath id="_clip6">
                    <path d="M20241.5,4008.32C20259.4,3999.44 20292.7,3990.64 20275.4,3964.33C20259.4,3940.19 20233.6,3960.79 20218.6,3966.95C20181.6,3982.11 20182.3,3996.38 20188.8,4008.98C20199.4,4029.44 20215.4,4021.27 20241.5,4008.32Z"/>
                </clipPath>
                <g clip-path="url(#_clip6)">
                    <path d="M20195,4028.78C20194,3994.52 20226.4,3970.18 20283.9,3953.3L20185.4,3946.38L20173.9,4021.39L20195,4028.78Z" style="fill:rgb(189,181,187);"/>
                </g>
            </g>
            <g transform="matrix(1,0,0,0.0967995,-18598.4,0.299591)">
                <path d="M20112,4050.94C20121.9,4045.18 20129.3,4042.8 20132.5,4047.81C20135.9,4053.19 20128.6,4058.51 20120.1,4063.89C20111.9,4069.03 20103.4,4070.41 20100.9,4066.34C20097.6,4061.12 20103.9,4055.65 20112,4050.94Z" style="fill:rgb(167,156,165);"/>
            </g>
            <g transform="matrix(-1,0,0,-0.0967995,21680.3,785.711)">
                <path d="M20112,4050.94C20121.9,4045.18 20129.3,4042.8 20132.5,4047.81C20135.9,4053.19 20128.6,4058.51 20120.1,4063.89C20111.9,4069.03 20103.4,4070.41 20100.9,4066.34C20097.6,4061.12 20103.9,4055.65 20112,4050.94Z" style="fill:rgb(167,156,165);"/>
            </g>
            <g transform="matrix(1,0,0,0.0967995,-18598.4,0)">
                <path d="M20112,4050.94C20121.9,4045.18 20129.3,4042.8 20132.5,4047.81C20135.9,4053.19 20128.6,4058.51 20120.1,4063.89C20111.9,4069.03 20103.4,4070.41 20100.9,4066.34C20097.6,4061.12 20103.9,4055.65 20112,4050.94Z" style="fill:rgb(179,170,178);"/>
                <clipPath id="_clip7">
                    <path d="M20112,4050.94C20121.9,4045.18 20129.3,4042.8 20132.5,4047.81C20135.9,4053.19 20128.6,4058.51 20120.1,4063.89C20111.9,4069.03 20103.4,4070.41 20100.9,4066.34C20097.6,4061.12 20103.9,4055.65 20112,4050.94Z"/>
                </clipPath>
                <g clip-path="url(#_clip7)">
                    <path d="M20094.2,4070.36C20112.8,4052.27 20130.5,4045.09 20139.8,4050.72L20128.2,4040.71L20098.7,4042.54L20094.2,4070.36Z" style="fill:rgb(189,181,188);"/>
                </g>
            </g>
            <g transform="matrix(-1,0,0,-0.0967995,21680.3,785.411)">
                <path d="M20112,4050.94C20121.9,4045.18 20129.3,4042.8 20132.5,4047.81C20135.9,4053.19 20128.6,4058.51 20120.1,4063.89C20111.9,4069.03 20103.4,4070.41 20100.9,4066.34C20097.6,4061.12 20103.9,4055.65 20112,4050.94Z" style="fill:rgb(179,170,178);"/>
                <clipPath id="_clip8">
                    <path d="M20112,4050.94C20121.9,4045.18 20129.3,4042.8 20132.5,4047.81C20135.9,4053.19 20128.6,4058.51 20120.1,4063.89C20111.9,4069.03 20103.4,4070.41 20100.9,4066.34C20097.6,4061.12 20103.9,4055.65 20112,4050.94Z"/>
                </clipPath>
                <g clip-path="url(#_clip8)">
                    <g transform="matrix(-1,0,0,-1,40230.2,8115.44)">
                        <path d="M20094.2,4070.36C20112.8,4052.27 20130.5,4045.09 20139.8,4050.72L20128.2,4040.71L20098.7,4042.54L20094.2,4070.36Z" style="fill:rgb(189,181,188);"/>
                    </g>
                </g>
            </g>
            <g transform="matrix(1,0,0,0.0967995,-18598.4,0)">
                <path d="M20202.4,3981.87C20210.1,3976.43 20219.9,3979.11 20225,3990.42C20228,3997.33 20227.7,4005.49 20220.4,4011.21C20213.6,4016.61 20202.2,4016.07 20196.8,4006.9C20190.4,3995.93 20193.2,3988.31 20202.4,3981.87Z" style="fill:rgb(209,84,114);"/>
                <clipPath id="_clip9">
                    <path d="M20202.4,3981.87C20210.1,3976.43 20219.9,3979.11 20225,3990.42C20228,3997.33 20227.7,4005.49 20220.4,4011.21C20213.6,4016.61 20202.2,4016.07 20196.8,4006.9C20190.4,3995.93 20193.2,3988.31 20202.4,3981.87Z"/>
                </clipPath>
                <g clip-path="url(#_clip9)">
                    <g transform="matrix(1.1033,0.247918,-0.247918,1.1033,-1096.94,-5422.83)">
                        <path d="M20202.2,4012.43C20200.1,4011.16 20198.3,4009.34 20196.8,4006.9C20190.4,3995.93 20193.2,3988.31 20202.4,3981.87C20209.6,3976.82 20218.5,3978.77 20223.8,3988.11C20219,3984.96 20213.3,3985.16 20208.4,3988.59C20199.6,3994.8 20196.7,4002.1 20202.2,4012.43Z" style="fill:rgb(217,113,138);"/>
                    </g>
                </g>
            </g>
            <g transform="matrix(-0.997705,-0.00655445,0.0677116,-0.0965773,21550.9,903.449)">
                <path d="M20202.4,3981.87C20210.1,3976.43 20219.9,3979.11 20225,3990.42C20228,3997.33 20227.7,4005.49 20220.4,4011.21C20213.6,4016.61 20202.2,4016.07 20196.8,4006.9C20190.4,3995.93 20193.2,3988.31 20202.4,3981.87Z" style="fill:rgb(209,84,114);"/>
                <clipPath id="_clip10">
                    <path d="M20202.4,3981.87C20210.1,3976.43 20219.9,3979.11 20225,3990.42C20228,3997.33 20227.7,4005.49 20220.4,4011.21C20213.6,4016.61 20202.2,4016.07 20196.8,4006.9C20190.4,3995.93 20193.2,3988.31 20202.4,3981.87Z"/>
                </clipPath>
                <g clip-path="url(#_clip10)">
                    <g transform="matrix(-1.13396,0.218023,-0.218628,-1.1371,44049,4102.77)">
                        <path d="M20246.7,3991.31C20244.4,3989.28 20242.4,3986.33 20241,3982.48C20238.4,3975.38 20239.3,3967.26 20246.9,3962.04C20254,3957.12 20265.4,3958.43 20270.2,3967.94C20270.3,3968.21 20270.4,3968.48 20270.5,3968.75C20265,3964.24 20257,3964.33 20251.5,3968.12C20243.9,3973.34 20243,3981.46 20245.6,3988.56C20245.9,3989.54 20246.3,3990.45 20246.7,3991.31Z" style="fill:rgb(217,113,138);"/>
                    </g>
                </g>
            </g>
            <g transform="matrix(1,0,0,0.0967995,-18599.2,-0.0217211)">
                <path d="M20258,4051.13C20256.2,4052.95 20258.4,4057.95 20262.1,4063.95C20266,4070.32 20271.8,4076.14 20273.9,4074.85C20276.3,4073.4 20273.2,4068.18 20269.3,4061.83C20265.4,4055.46 20259.5,4049.55 20258,4051.13Z" style="fill:rgb(188,180,186);"/>
            </g>
            <g transform="matrix(1,0,0,0.0967995,-18639.3,2.49539)">
                <path d="M20258,4051.13C20256.2,4052.95 20262,4064.83 20265.7,4070.83C20269.6,4077.2 20277.2,4088.12 20279.3,4086.83C20281.6,4085.39 20276.9,4075.07 20272.9,4068.71C20269,4062.34 20259.5,4049.55 20258,4051.13Z" style="fill:rgb(188,180,186);"/>
            </g>
            <g transform="matrix(1,0,0,0.0967995,-18668.7,3.56325)">
                <path d="M20261.4,4057.42C20259.6,4059.24 20263.5,4067.89 20267.2,4073.89C20271.1,4080.26 20279.5,4090.68 20281.6,4089.38C20283.9,4087.94 20278.4,4078.13 20274.5,4071.77C20270.5,4065.4 20262.9,4055.84 20261.4,4057.42Z" style="fill:rgb(188,180,186);"/>
            </g>
            <g transform="matrix(-0.419549,0.0878681,0.907733,0.0406121,6425.13,-1549.35)">
                <path d="M20259.9,4054.11C20258.2,4055.93 20262,4064.83 20265.7,4070.83C20269.6,4077.2 20279.5,4090.68 20281.6,4089.38C20283.9,4087.94 20276.9,4075.07 20272.9,4068.71C20269,4062.34 20261.5,4052.53 20259.9,4054.11Z" style="fill:rgb(188,180,186);"/>
            </g>
            <g transform="matrix(-0.462521,0.0858232,0.886608,0.0447718,7409.3,-1526.31)">
                <path d="M20258,4051.13C20256.2,4052.95 20262,4064.83 20265.7,4070.83C20269.6,4077.2 20277.9,4088.4 20280,4087.1C20282.3,4085.66 20276.9,4075.07 20272.9,4068.71C20269,4062.34 20259.5,4049.55 20258,4051.13Z" style="fill:rgb(188,180,186);"/>
            </g>
            <g transform="matrix(0.999742,0.00219862,-0.0227131,0.0967745,-18515,-43.707)">
                <path d="M20258,4051.13C20256.2,4052.95 20262,4064.83 20265.7,4070.83C20269.6,4077.2 20278,4087.3 20280.1,4086.01C20282.5,4084.57 20276.9,4075.07 20272.9,4068.71C20269,4062.34 20259.5,4049.55 20258,4051.13Z" style="fill:rgb(188,180,186);"/>
            </g>
            <g transform="matrix(1,0,0,0.0967995,-18599.2,-0.244083)">
                <path d="M20258,4051.13C20256.2,4052.95 20258.4,4057.95 20262.1,4063.95C20266,4070.32 20271.8,4076.14 20273.9,4074.85C20276.3,4073.4 20273.2,4068.18 20269.3,4061.83C20265.4,4055.46 20259.5,4049.55 20258,4051.13Z" style="fill:rgb(199,192,197);"/>
            </g>
            <g transform="matrix(1,0,0,0.0967995,-18639.3,2.27302)">
                <path d="M20258,4051.13C20256.2,4052.95 20262,4064.83 20265.7,4070.83C20269.6,4077.2 20277.2,4088.12 20279.3,4086.83C20281.6,4085.39 20276.9,4075.07 20272.9,4068.71C20269,4062.34 20259.5,4049.55 20258,4051.13Z" style="fill:rgb(199,192,197);"/>
            </g>
            <g transform="matrix(1,0,0,0.0967995,-18668.7,3.34089)">
                <path d="M20261.4,4057.42C20259.6,4059.24 20263.5,4067.89 20267.2,4073.89C20271.1,4080.26 20279.5,4090.68 20281.6,4089.38C20283.9,4087.94 20278.4,4078.13 20274.5,4071.77C20270.5,4065.4 20262.9,4055.84 20261.4,4057.42Z" style="fill:rgb(199,192,197);"/>
            </g>
            <g transform="matrix(-0.419549,0.0878681,0.907733,0.0406121,6425.13,-1549.57)">
                <path d="M20259.9,4054.11C20258.2,4055.93 20262,4064.83 20265.7,4070.83C20269.6,4077.2 20279.5,4090.68 20281.6,4089.38C20283.9,4087.94 20276.9,4075.07 20272.9,4068.71C20269,4062.34 20261.5,4052.53 20259.9,4054.11Z" style="fill:rgb(199,192,197);"/>
            </g>
            <g transform="matrix(-0.462521,0.0858232,0.886608,0.0447718,7409.3,-1526.53)">
                <path d="M20258,4051.13C20256.2,4052.95 20262,4064.83 20265.7,4070.83C20269.6,4077.2 20277.9,4088.4 20280,4087.1C20282.3,4085.66 20276.9,4075.07 20272.9,4068.71C20269,4062.34 20259.5,4049.55 20258,4051.13Z" style="fill:rgb(199,192,197);"/>
            </g>
            <g transform="matrix(0.999742,0.00219862,-0.0227131,0.0967745,-18515,-43.9294)">
                <path d="M20258,4051.13C20256.2,4052.95 20262,4064.83 20265.7,4070.83C20269.6,4077.2 20278,4087.3 20280.1,4086.01C20282.5,4084.57 20276.9,4075.07 20272.9,4068.71C20269,4062.34 20259.5,4049.55 20258,4051.13Z" style="fill:rgb(199,192,197);"/>
            </g>
        </g>
    </g>
</svg>
