<?xml version="1.0" encoding="UTF-8" standalone="no"?><!DOCTYPE svg PUBLIC "-//W3C//DTD SVG 1.1//EN" "http://www.w3.org/Graphics/SVG/1.1/DTD/svg11.dtd"><svg width="100%" height="100%" viewBox="0 0 510 401" version="1.1" xmlns="http://www.w3.org/2000/svg" xmlns:xlink="http://www.w3.org/1999/xlink" xml:space="preserve" xmlns:serif="http://www.serif.com/" style="fill-rule:evenodd;clip-rule:evenodd;stroke-linejoin:round;stroke-miterlimit:2;"><g><path d="M503.882,35.5c0,-16.569 -13.431,-30 -30,-30c-88.79,0 -349.592,0 -438.382,0c-16.569,-0 -30,13.431 -30,30l0,39.926c0,16.569 13.431,30 30,30l438.382,0c16.569,0 30,-13.431 30,-30l0,-39.926Z" style="fill:#433825;"/><path d="M506.549,35.5c-0.061,-8.999 -3.743,-17.129 -9.68,-22.987c-5.909,-5.829 -14.032,-9.423 -22.987,-9.363c-33.908,0.197 -92.897,0.966 -157.818,0.916c-6.954,-0.006 -13.976,-0.052 -21.042,-0.155c-27.857,-0.407 -56.371,-1.578 -84.169,-1.839c-17.979,-0.169 -35.645,0.078 -52.606,0.161c-50.684,0.25 -95.07,0.647 -122.747,0.835c-8.934,0.059 -17.003,3.719 -22.822,9.61c-5.794,5.864 -9.372,13.927 -9.323,22.822c0,-0 -0.109,39.926 -0.109,39.926c-0.115,8.949 3.449,17.076 9.234,23.02c5.842,6.003 13.983,9.744 23.02,9.874c15.71,0.21 36.798,0.69 61.373,0.821c8.388,0.045 17.181,-0.03 26.303,-0.072c42.209,-0.193 91.468,-0.751 140.283,-0.9c7.031,-0.021 14.052,-0.044 21.042,0.007c29.156,0.212 57.744,1.094 84.17,1.202c43.318,0.177 80.777,-0.493 105.211,-0.641c9.173,-0.073 17.458,-3.83 23.422,-9.889c5.93,-6.024 9.588,-14.3 9.516,-23.422c-0,0 -0.271,-39.926 -0.271,-39.926Zm-5.334,-0l-0.271,39.926c-0.059,7.448 -3.139,14.162 -8.058,19.004c-4.885,4.809 -11.608,7.744 -19.004,7.686c-24.434,-0.149 -61.893,-0.819 -105.212,-0.641c-26.425,0.108 -55.013,0.989 -84.169,1.202c-6.99,0.051 -14.011,0.028 -21.042,0.007c-48.815,-0.149 -98.074,-0.708 -140.283,-0.901c-9.122,-0.041 -17.915,-0.116 -26.303,-0.072c-24.576,0.131 -45.663,0.611 -61.373,0.821c-7.533,0.109 -14.403,-2.83 -19.407,-7.699c-5.061,-4.927 -8.241,-11.786 -8.339,-19.407c0,0 -0.109,-39.926 -0.109,-39.926c0.042,-7.674 3.191,-14.606 8.251,-19.604c5.034,-4.973 11.97,-8.015 19.604,-7.964c27.677,0.188 72.063,0.585 122.747,0.835c16.961,0.083 34.627,0.33 52.606,0.161c27.798,-0.261 56.312,-1.432 84.169,-1.839c7.066,-0.103 14.088,-0.149 21.043,-0.155c64.92,-0.05 123.909,0.719 157.817,0.916c7.614,0.051 14.484,3.187 19.44,8.21c4.927,4.994 7.944,11.87 7.893,19.44Z" style="fill:#433825;"/><path d="M503.882,220.053c0,16.568 -13.431,30 -30,30l-438.382,-0c-16.569,-0 -30,-13.432 -30,-30l0,-39.927c0,-16.568 13.431,-30 30,-30c88.79,0 349.592,0 438.382,0c16.569,0 30,13.432 30,30l0,39.927Z" style="fill:#433825;"/><path d="M506.549,220.053l0.271,-39.927c0.072,-9.121 -3.586,-17.397 -9.516,-23.422c-5.964,-6.059 -14.249,-9.815 -23.422,-9.888c-24.434,-0.149 -61.893,-0.819 -105.212,-0.641c-26.425,0.108 -55.013,0.989 -84.169,1.202c-6.99,0.051 -14.011,0.028 -21.042,0.007c-48.815,-0.149 -98.074,-0.708 -140.283,-0.901c-9.122,-0.041 -17.915,-0.116 -26.303,-0.071c-24.576,0.13 -45.663,0.61 -61.373,0.821c-9.037,0.13 -17.178,3.871 -23.02,9.874c-5.785,5.943 -9.349,14.07 -9.234,23.019c-0,0 0.109,39.927 0.109,39.927c-0.049,8.894 3.529,16.957 9.323,22.822c5.819,5.891 13.888,9.55 22.822,9.61c27.677,0.188 72.063,0.584 122.747,0.834c16.961,0.084 34.627,0.33 52.606,0.161c27.798,-0.261 56.312,-1.432 84.169,-1.838c7.066,-0.104 14.088,-0.15 21.043,-0.155c64.92,-0.051 123.909,0.719 157.817,0.915c8.955,0.06 17.078,-3.534 22.987,-9.363c5.937,-5.857 9.619,-13.987 9.68,-22.986Zm-5.334,-0c0.051,7.57 -2.966,14.445 -7.893,19.439c-4.956,5.024 -11.826,8.16 -19.44,8.211c-33.908,0.197 -92.897,0.966 -157.818,0.915c-6.954,-0.005 -13.976,-0.051 -21.042,-0.154c-27.857,-0.407 -56.371,-1.578 -84.169,-1.839c-17.979,-0.169 -35.645,0.077 -52.606,0.161c-50.684,0.25 -95.07,0.646 -122.747,0.835c-7.634,0.05 -14.57,-2.992 -19.604,-7.964c-5.06,-4.999 -8.209,-11.93 -8.251,-19.604c-0,-0 0.109,-39.927 0.109,-39.927c0.098,-7.621 3.278,-14.48 8.339,-19.406c5.004,-4.87 11.874,-7.808 19.407,-7.7c15.71,0.21 36.798,0.69 61.373,0.821c8.388,0.045 17.181,-0.03 26.303,-0.072c42.209,-0.193 91.468,-0.751 140.283,-0.9c7.031,-0.021 14.052,-0.044 21.042,0.007c29.156,0.213 57.744,1.094 84.17,1.202c43.318,0.177 80.777,-0.492 105.211,-0.641c7.396,-0.059 14.119,2.877 19.004,7.685c4.919,4.842 7.999,11.557 8.058,19.004c0,0 0.271,39.927 0.271,39.927Z" style="fill:#433825;"/><path d="M503.882,324.753c0,-16.569 -13.431,-30 -30,-30l-438.382,-0c-16.569,-0 -30,13.431 -30,30l0,39.926c0,16.569 13.431,30 30,30c88.79,-0 349.592,-0 438.382,-0c16.569,-0 30,-13.431 30,-30l0,-39.926Z" style="fill:#433825;"/><path d="M506.549,324.753c-0.061,-8.999 -3.743,-17.129 -9.68,-22.987c-5.909,-5.829 -14.032,-9.423 -22.987,-9.363c-33.908,0.197 -92.897,0.966 -157.818,0.915c-6.954,-0.005 -13.976,-0.051 -21.042,-0.154c-27.857,-0.407 -56.371,-1.578 -84.169,-1.839c-17.979,-0.169 -35.645,0.077 -52.606,0.161c-50.684,0.25 -95.07,0.646 -122.747,0.835c-8.934,0.059 -17.003,3.719 -22.822,9.609c-5.794,5.865 -9.372,13.928 -9.323,22.823c0,-0 -0.109,39.926 -0.109,39.926c-0.115,8.949 3.449,17.076 9.234,23.02c5.842,6.003 13.983,9.744 23.02,9.874c15.71,0.21 36.798,0.69 61.373,0.821c8.388,0.044 17.181,-0.03 26.303,-0.072c42.209,-0.193 91.468,-0.751 140.283,-0.9c7.031,-0.022 14.052,-0.045 21.042,0.006c29.156,0.213 57.744,1.094 84.17,1.203c43.318,0.177 80.777,-0.493 105.211,-0.642c9.173,-0.072 17.458,-3.829 23.422,-9.888c5.93,-6.025 9.588,-14.301 9.516,-23.422c-0,-0 -0.271,-39.926 -0.271,-39.926Zm-5.334,-0l-0.271,39.926c-0.059,7.448 -3.139,14.162 -8.058,19.004c-4.885,4.809 -11.608,7.744 -19.004,7.686c-24.434,-0.149 -61.893,-0.819 -105.212,-0.642c-26.425,0.108 -55.013,0.99 -84.169,1.203c-6.99,0.051 -14.011,0.028 -21.042,0.006c-48.815,-0.149 -98.074,-0.707 -140.283,-0.9c-9.122,-0.042 -17.915,-0.116 -26.303,-0.072c-24.576,0.131 -45.663,0.611 -61.373,0.821c-7.533,0.109 -14.403,-2.83 -19.407,-7.699c-5.061,-4.927 -8.241,-11.786 -8.339,-19.407c0,-0 -0.109,-39.926 -0.109,-39.926c0.042,-7.674 3.191,-14.606 8.251,-19.604c5.034,-4.973 11.97,-8.015 19.604,-7.964c27.677,0.188 72.063,0.585 122.747,0.834c16.961,0.084 34.627,0.33 52.606,0.162c27.798,-0.261 56.312,-1.433 84.169,-1.839c7.066,-0.103 14.088,-0.15 21.043,-0.155c64.92,-0.05 123.909,0.719 157.817,0.915c7.614,0.052 14.484,3.188 19.44,8.211c4.927,4.994 7.944,11.87 7.893,19.44Z" style="fill:#433825;"/></g></svg>