<?xml version="1.0" encoding="UTF-8" standalone="no"?><!DOCTYPE svg PUBLIC "-//W3C//DTD SVG 1.1//EN" "http://www.w3.org/Graphics/SVG/1.1/DTD/svg11.dtd"><svg width="100%" height="100%" viewBox="0 0 1920 6860" version="1.1" xmlns="http://www.w3.org/2000/svg" xmlns:xlink="http://www.w3.org/1999/xlink" xml:space="preserve" xmlns:serif="http://www.serif.com/" style="fill-rule:evenodd;clip-rule:evenodd;stroke-miterlimit:1.5;"><g><clipPath id="_clip1"><rect x="0" y="8.319" width="1920" height="6729"/></clipPath><g clip-path="url(#_clip1)"><rect x="0" y="8.319" width="1920" height="6729" style="fill:#caba9f;"/><path d="M0,5783.35c98.351,129.087 214.09,340.374 264.738,433.67c67.243,123.866 -33.345,294.745 70.547,411.357c29.266,32.85 73.555,70.8 127.066,108.945l-462.351,-0l0,-953.972Zm1920,953.972l-360.281,-0c60.962,-40.173 50.688,-69.921 82.926,-100c87.209,-81.372 33.213,-224.665 60.738,-329.932c49.501,-189.308 167.783,-215.988 216.617,-338.476l0,768.408Zm0,-2539.3l0,1585.33c-48.834,-159.244 -184.753,-351.087 -216.617,-516.752c-37.957,-197.346 -17.855,-389.772 21.175,-585.719c31.864,-159.971 146.608,-325.484 195.442,-482.861Zm0,-2254.82l0,2034c-47.333,-166.367 -176.724,-342.974 -216.617,-487.804c-42.3,-153.569 -60.738,-311.958 -60.738,-469.181c-0,-172.994 14.064,-382.172 60.738,-568.783c40.256,-160.95 169.284,-347.58 216.617,-508.229Zm-1920,-938.643c24.465,80.508 51.652,160.65 70.83,236.333c42.229,166.649 139.004,330.946 139.004,497.865c0,166.92 -139.004,331.758 -139.004,503.652c0,172.311 139.004,349.663 139.004,530.214c0,193.103 -139.004,446.756 -139.004,628.403c0,158.195 101.96,306.066 139.004,461.483c44.076,184.921 113.345,398.162 90.177,615.812c-23.167,217.649 -163.375,465.879 -229.181,690.088c-20.986,71.504 -46.706,151.456 -70.83,232.874l-0,-4396.72Zm1920,743.414c-47.468,-125.282 -175.817,-238.954 -195.442,-370.637c-25.883,-173.674 34.042,-407.454 57.707,-578.29c20.733,-149.673 134.18,-318.289 84.28,-446.728c-49.9,-128.439 -205.846,-279.549 -383.679,-323.907c-197.076,-49.159 -601.336,-24.667 -825.232,-0c-186.469,20.543 -381.745,80.717 -507.122,178.097c-64.895,50.403 -115.405,129.232 -150.512,216.368l0,-414.555l1920,-0l0,1739.65Z" style="fill:#bfac8c;"/><g><path d="M1187.87,655.249l0,6082.07" style="fill:none;stroke:#7c948a;stroke-width:135px;"/><path d="M1035.8,655.249l-0,6082.07" style="fill:none;stroke:#87a086;stroke-width:135px;"/><path d="M884.381,655.249l-0,6082.07" style="fill:none;stroke:#d8a569;stroke-width:135px;"/><path d="M732.607,655.249l0,6082.07" style="fill:none;stroke:#d77b68;stroke-width:135px;"/></g></g></g></svg>