<?xml version="1.0" encoding="UTF-8" standalone="no"?><!DOCTYPE svg PUBLIC "-//W3C//DTD SVG 1.1//EN" "http://www.w3.org/Graphics/SVG/1.1/DTD/svg11.dtd"><svg width="100%" height="100%" viewBox="0 0 8000 28580" version="1.1" xmlns="http://www.w3.org/2000/svg" xmlns:xlink="http://www.w3.org/1999/xlink" xml:space="preserve" xmlns:serif="http://www.serif.com/" style="fill-rule:evenodd;clip-rule:evenodd;stroke-miterlimit:1.5;"><rect x="0" y="34.661" width="8000" height="28037.5" style="fill:#caba9f;"/><path d="M0,24097.3c409.797,537.862 892.043,1418.22 1103.07,1806.96c280.179,516.108 -138.936,1228.1 293.946,1713.99c121.944,136.876 306.482,295.002 529.441,453.936l-1926.46,-0l0,-3974.88Zm8000,3974.88l-1501.17,-0c254.008,-167.385 211.2,-291.334 345.523,-416.667c363.371,-339.05 138.389,-936.104 253.078,-1374.72c206.253,-788.782 699.095,-899.947 902.57,-1410.31l0,3201.7Zm0,-10580.4l0,6605.55c-203.475,-663.52 -769.804,-1462.86 -902.57,-2153.14c-158.156,-822.273 -74.397,-1624.05 88.227,-2440.49c132.767,-666.547 610.868,-1356.18 814.343,-2011.92Zm0,-9395.06l0,8474.99c-197.22,-693.196 -736.351,-1429.06 -902.57,-2032.52c-176.249,-639.873 -253.078,-1299.83 -253.078,-1954.92c0,-720.808 58.602,-1592.38 253.078,-2369.93c167.734,-670.627 705.349,-1448.25 902.57,-2117.62Zm-8000,-3911.01c101.937,335.451 215.219,669.378 295.127,984.721c175.953,694.371 579.182,1378.94 579.182,2074.44c-0,695.498 -579.182,1382.32 -579.182,2098.55c-0,717.963 579.182,1456.93 579.182,2209.23c-0,804.596 -579.182,1861.48 -579.182,2618.35c-0,659.144 424.833,1275.27 579.182,1922.85c183.649,770.503 472.268,1659.01 375.738,2565.88c-96.531,906.874 -680.728,1941.16 -954.92,2875.37c-87.444,297.932 -194.61,631.065 -295.127,970.307l0,-18319.7Zm8000,3097.56c-197.784,-522.008 -732.572,-995.639 -814.343,-1544.32c-107.845,-723.641 141.843,-1697.72 240.445,-2409.54c86.388,-623.639 559.084,-1326.2 351.168,-1861.37c-207.915,-535.163 -857.691,-1164.79 -1598.66,-1349.61c-821.15,-204.827 -2505.57,-102.779 -3438.47,-0c-776.952,85.598 -1590.6,336.322 -2113.01,742.07c-270.396,210.015 -480.855,538.469 -627.132,901.533l0,-1727.31l8000,-0l0,7248.55Z" style="fill:#bfac8c;"/><path d="M1264.84,1624.16l0,26448" style="fill:none;stroke:#d77b68;stroke-width:562.5px;"/><path d="M1389.21,1793.21c-0,-7.668 -3.047,-15.022 -8.469,-20.444c-5.422,-5.422 -12.776,-8.469 -20.444,-8.469l-190.92,0c-7.668,0 -15.022,3.047 -20.444,8.469c-5.422,5.422 -8.468,12.776 -8.468,20.444l-0,190.92c-0,7.668 3.046,15.022 8.468,20.444c5.422,5.422 12.776,8.468 20.444,8.468l190.92,0c7.668,0 15.022,-3.046 20.444,-8.468c5.422,-5.422 8.469,-12.776 8.469,-20.444l-0,-190.92Zm-49.783,76.565l21.802,0c0,0 0,71.801 0,102.345c0,3.578 -1.421,7.01 -3.952,9.54c-2.53,2.531 -5.962,3.952 -9.54,3.952l-165.799,0c-3.579,0 -7.011,-1.421 -9.541,-3.952c-2.53,-2.53 -3.952,-5.962 -3.952,-9.54c0,-30.544 0,-102.345 0,-102.345l21.802,0c-1.236,5.454 -1.889,11.128 -1.889,16.953c0,42.209 34.269,76.479 76.479,76.479c42.21,-0 76.479,-34.27 76.479,-76.479c0,-5.825 -0.652,-11.499 -1.889,-16.953Zm-74.59,-31.781c26.897,-0 48.734,21.837 48.734,48.734c0,26.896 -21.837,48.733 -48.734,48.733c-26.897,0 -48.734,-21.837 -48.734,-48.733c0,-26.897 21.837,-48.734 48.734,-48.734Zm95.626,-34.263c-0,-3.578 -1.422,-7.01 -3.952,-9.54c-2.531,-2.531 -5.963,-3.952 -9.541,-3.952l-23.743,-0c-3.578,-0 -7.01,1.421 -9.541,3.952c-2.53,2.53 -3.951,5.962 -3.951,9.54l-0,23.743c-0,3.579 1.421,7.011 3.951,9.541c2.531,2.53 5.963,3.952 9.541,3.952l23.743,-0c3.578,-0 7.01,-1.422 9.541,-3.952c2.53,-2.53 3.952,-5.962 3.952,-9.541l-0,-23.743Z" style="fill:#dadada;"/></svg>