<?xml version="1.0" encoding="UTF-8" standalone="no"?>
<!DOCTYPE svg PUBLIC "-//W3C//DTD SVG 1.1//EN" "http://www.w3.org/Graphics/SVG/1.1/DTD/svg11.dtd">
<svg width="100%" height="100%" viewBox="0 0 259 259" version="1.1" xmlns="http://www.w3.org/2000/svg" xmlns:xlink="http://www.w3.org/1999/xlink" xml:space="preserve" xmlns:serif="http://www.serif.com/" style="fill-rule:evenodd;clip-rule:evenodd;stroke-linejoin:round;stroke-miterlimit:2;">
    <g transform="matrix(1,0,0,1,-17136.7,-1842.03)">
        <g transform="matrix(1,0,0,1,-208.209,-1221.92)">
            <path d="M17603.1,3093.95C17603.1,3085.99 17599.9,3078.36 17594.3,3072.74C17588.6,3067.11 17581,3063.95 17573.1,3063.95L17374.9,3063.95C17367,3063.95 17359.4,3067.11 17353.7,3072.74C17348.1,3078.36 17344.9,3085.99 17344.9,3093.95L17344.9,3292.05C17344.9,3300.01 17348.1,3307.64 17353.7,3313.26C17359.4,3318.89 17367,3322.05 17374.9,3322.05L17573.1,3322.05C17581,3322.05 17588.6,3318.89 17594.3,3313.26C17599.9,3307.64 17603.1,3300.01 17603.1,3292.05L17603.1,3093.95ZM17551.4,3173.39L17574,3173.39C17574,3173.39 17574,3247.9 17574,3279.59C17574,3283.3 17572.5,3286.86 17569.9,3289.49C17567.3,3292.11 17563.7,3293.59 17560,3293.59L17388,3293.59C17384.3,3293.59 17380.7,3292.11 17378.1,3289.49C17375.5,3286.86 17374,3283.3 17374,3279.59C17374,3247.9 17374,3173.39 17374,3173.39L17396.6,3173.39C17395.3,3179.05 17394.6,3184.94 17394.6,3190.99C17394.6,3234.78 17430.2,3270.34 17474,3270.34C17517.8,3270.34 17553.4,3234.78 17553.4,3190.99C17553.4,3184.94 17552.7,3179.05 17551.4,3173.39ZM17474,3140.42C17501.9,3140.42 17524.6,3163.08 17524.6,3190.99C17524.6,3218.89 17501.9,3241.55 17474,3241.55C17446.1,3241.55 17423.4,3218.89 17423.4,3190.99C17423.4,3163.08 17446.1,3140.42 17474,3140.42ZM17573.2,3104.87C17573.2,3101.15 17571.7,3097.59 17569.1,3094.97C17566.5,3092.34 17562.9,3090.87 17559.2,3090.87L17534.6,3090.87C17530.9,3090.87 17527.3,3092.34 17524.7,3094.97C17522.1,3097.59 17520.6,3101.15 17520.6,3104.87L17520.6,3129.5C17520.6,3133.22 17522.1,3136.78 17524.7,3139.4C17527.3,3142.03 17530.9,3143.5 17534.6,3143.5L17559.2,3143.5C17562.9,3143.5 17566.5,3142.03 17569.1,3139.4C17571.7,3136.78 17573.2,3133.22 17573.2,3129.5L17573.2,3104.87Z" style="fill:rgb(218,218,218);"/>
        </g>
    </g>
</svg>
