<?xml version="1.0" encoding="UTF-8" standalone="no"?>
<!DOCTYPE svg PUBLIC "-//W3C//DTD SVG 1.1//EN" "http://www.w3.org/Graphics/SVG/1.1/DTD/svg11.dtd">
<svg width="100%" height="100%" viewBox="0 0 831 789" version="1.1" xmlns="http://www.w3.org/2000/svg" xmlns:xlink="http://www.w3.org/1999/xlink" xml:space="preserve" xmlns:serif="http://www.serif.com/" style="fill-rule:evenodd;clip-rule:evenodd;stroke-linejoin:round;stroke-miterlimit:2;">
    <g transform="matrix(1,0,0,1,-15187.7,-3388.14)">
        <g transform="matrix(1.06711,0,0,1.07031,-2150.55,1662)">
            <g transform="matrix(0.94216,0,0,0.94216,961.398,96.8308)">
                <path d="M16831.8,1658.32C16804.8,1632.12 16717.5,1611.22 16657,1609.19C16592.5,1607.03 16499.8,1620.99 16444.6,1645.31C16395.4,1667.04 16359.1,1712.54 16326.2,1755.12C16291.5,1799.85 16251.7,1855.93 16236.9,1913.73C16222,1971.52 16219.8,2042.34 16236.9,2101.87C16253.9,2161.4 16296.3,2229.74 16339.2,2270.91C16380.8,2310.93 16443.6,2328.95 16493.7,2348.93C16540.9,2367.71 16591.4,2390.83 16640,2390.83C16688.6,2390.83 16739.2,2368.82 16785.6,2348.93C16832.3,2328.95 16882.9,2304.87 16920,2270.91C16957,2236.96 16986.3,2189.26 17008.1,2145.21C17029.6,2101.89 17048.2,2050.2 17050.9,2006.62C17053.4,1964.76 17038.4,1905.44 17024,1883.7C17005.9,1856.41 16989.4,1913.52 16949.5,1876.6C16929.1,1857.75 16872.3,1892.38 16867.4,1845.3C16862.1,1794.76 16817.7,1823.62 16808,1769.91C16795.9,1702.78 16877.2,1702.32 16831.8,1658.32Z" style="fill:rgb(202,186,159);"/>
                <clipPath id="_clip1">
                    <path d="M16831.8,1658.32C16804.8,1632.12 16717.5,1611.22 16657,1609.19C16592.5,1607.03 16499.8,1620.99 16444.6,1645.31C16395.4,1667.04 16359.1,1712.54 16326.2,1755.12C16291.5,1799.85 16251.7,1855.93 16236.9,1913.73C16222,1971.52 16219.8,2042.34 16236.9,2101.87C16253.9,2161.4 16296.3,2229.74 16339.2,2270.91C16380.8,2310.93 16443.6,2328.95 16493.7,2348.93C16540.9,2367.71 16591.4,2390.83 16640,2390.83C16688.6,2390.83 16739.2,2368.82 16785.6,2348.93C16832.3,2328.95 16882.9,2304.87 16920,2270.91C16957,2236.96 16986.3,2189.26 17008.1,2145.21C17029.6,2101.89 17048.2,2050.2 17050.9,2006.62C17053.4,1964.76 17038.4,1905.44 17024,1883.7C17005.9,1856.41 16989.4,1913.52 16949.5,1876.6C16929.1,1857.75 16872.3,1892.38 16867.4,1845.3C16862.1,1794.76 16817.7,1823.62 16808,1769.91C16795.9,1702.78 16877.2,1702.32 16831.8,1658.32Z"/>
                </clipPath>
                <g clip-path="url(#_clip1)">
                    <path d="M16591.8,1611.56C16579.7,1787.1 16423.5,1838.93 16411.1,2014.89C16403.1,2127.53 16546.2,2087.99 16686,2184.56C16772.1,2244.07 16913.4,2253.27 16971.9,2294.98C17020.4,2329.63 17018.3,2467.84 17018.3,2467.84C17018.3,2467.84 16489.8,2468.82 16326.9,2390.83C16181.1,2321.1 16040.5,1999.9 16040.5,1999.9C16040.5,1999.9 16143.6,1785.7 16224.9,1709.32C16306.1,1632.94 16471.8,1557.34 16528.1,1541.62C16554.1,1534.35 16593.7,1584.62 16591.8,1611.56Z" style="fill:rgb(182,161,125);"/>
                    <path d="M16591.8,1611.56C16579.7,1787.1 16423.5,1838.93 16411.1,2014.89C16403.1,2127.53 16546.2,2087.99 16686,2184.56C16772.1,2244.07 16913.4,2253.27 16971.9,2294.98C17020.4,2329.63 17018.3,2467.84 17018.3,2467.84C17018.3,2467.84 16489.8,2468.82 16326.9,2390.83C16181.1,2321.1 16040.5,1999.9 16040.5,1999.9C16040.5,1999.9 16143.6,1785.7 16224.9,1709.32C16306.1,1632.94 16471.8,1557.34 16528.1,1541.62C16554.1,1534.35 16593.7,1584.62 16591.8,1611.56ZM16528.5,1593.43L16541.9,1611.38C16535.8,1686.3 16497.8,1734.56 16461.5,1783.63C16414.2,1847.62 16368.5,1912.43 16361.5,2011.39C16358.8,2048.37 16367.8,2074.95 16383,2095.72C16397.1,2115.1 16417.8,2129.83 16444.8,2141.16C16495.5,2162.43 16577.4,2169.85 16657.7,2225.31C16705,2258.02 16767.2,2277.74 16825.8,2294.18C16872.8,2307.32 16917.2,2316.98 16942.9,2335.31C16946.3,2337.72 16948,2342.24 16950.1,2346.85C16954.7,2356.99 16958,2368.87 16960.5,2380.9C16963.1,2393.42 16964.9,2406.13 16966.1,2417.8C16880.6,2416.51 16705.1,2411.56 16554.3,2392.66C16470.1,2382.12 16393.8,2367.89 16348.4,2346.13C16296.6,2321.35 16247.1,2259.3 16204.5,2195.58C16153,2118.72 16112.9,2037.61 16095.5,2000.61C16122.3,1946.94 16197,1803.65 16259,1745.4C16329.2,1679.43 16467.1,1614.24 16528.5,1593.43Z" style="fill:rgb(182,161,125);"/>
                </g>
                <path d="M16831.8,1658.32C16804.8,1632.12 16717.5,1611.22 16657,1609.19C16592.5,1607.03 16499.8,1620.99 16444.6,1645.31C16395.4,1667.04 16359.1,1712.54 16326.2,1755.12C16291.5,1799.85 16251.7,1855.93 16236.9,1913.73C16222,1971.52 16219.8,2042.34 16236.9,2101.87C16253.9,2161.4 16296.3,2229.74 16339.2,2270.91C16380.8,2310.93 16443.6,2328.95 16493.7,2348.93C16540.9,2367.71 16591.4,2390.83 16640,2390.83C16688.6,2390.83 16739.2,2368.82 16785.6,2348.93C16832.3,2328.95 16882.9,2304.87 16920,2270.91C16957,2236.96 16986.3,2189.26 17008.1,2145.21C17029.6,2101.89 17048.2,2050.2 17050.9,2006.62C17053.4,1964.76 17038.4,1905.44 17024,1883.7C17005.9,1856.41 16989.4,1913.52 16949.5,1876.6C16929.1,1857.75 16872.3,1892.38 16867.4,1845.3C16862.1,1794.76 16817.7,1823.62 16808,1769.91C16795.9,1702.78 16877.2,1702.32 16831.8,1658.32ZM16784.5,1686.06C16770.2,1706.32 16752.2,1740.65 16759.1,1778.7C16765,1811.28 16778.9,1827.9 16793.3,1839.28C16799.9,1844.41 16811.4,1850.32 16818.3,1853.69C16821.5,1876.98 16831.3,1891.6 16842.7,1901.73C16854.7,1912.49 16869.9,1918.73 16887.4,1920.54C16897.3,1921.57 16915.7,1920.75 16924.3,1920.28C16941.8,1933.71 16957.6,1937.94 16971.1,1938.87C16977.7,1939.32 16985.3,1938.05 16992.8,1936.06C16998.7,1956.39 17002.5,1982.92 17001.2,2003.62C16998.9,2041.32 16982.1,2085.79 16963.5,2123.26C16944.3,2162.09 16919,2204.47 16886.3,2234.39C16853.2,2264.71 16807.6,2285.53 16766,2303.38C16725.7,2320.64 16682.2,2341.25 16640,2341.25C16597.3,2341.25 16553.5,2319.36 16512.2,2302.89C16467.6,2285.1 16410.7,2270.85 16373.7,2235.23C16336.5,2199.42 16299.5,2140.03 16284.7,2088.26C16270,2036.93 16272.2,1975.88 16285,1926.06C16298.3,1874.61 16334.7,1825.24 16365.5,1785.41C16393.5,1749.24 16422.9,1709.11 16464.7,1690.66C16514.2,1668.84 16597.4,1656.8 16655.3,1658.75C16687.5,1659.83 16728.2,1666.95 16760.7,1677.47C16769.6,1680.31 16777.8,1683.01 16784.5,1686.06Z" style="fill:rgb(67,56,37);"/>
                <g>
                    <g transform="matrix(1,0,0,1,29.8814,129.947)">
                        <path d="M16598.8,1730.87C16598.8,1747.67 16660.8,1831.66 16673.2,1831.66C16685.6,1831.66 16685.6,1747.67 16673.2,1730.87C16660.8,1714.08 16598.8,1714.08 16598.8,1730.87Z" style="fill:rgb(172,147,106);"/>
                        <path d="M16598.8,1730.87C16598.8,1747.67 16660.8,1831.66 16673.2,1831.66C16685.6,1831.66 16685.6,1747.67 16673.2,1730.87C16660.8,1714.08 16598.8,1714.08 16598.8,1730.87Z" style="fill:rgb(172,147,106);"/>
                    </g>
                    <g transform="matrix(-0.581007,0.813898,-0.813898,-0.581007,27771,-10785.2)">
                        <path d="M16598.8,1730.87C16598.8,1747.67 16660.8,1831.66 16673.2,1831.66C16685.6,1831.66 16685.6,1747.67 16673.2,1730.87C16660.8,1714.08 16598.8,1714.08 16598.8,1730.87Z" style="fill:rgb(172,147,106);"/>
                        <path d="M16598.8,1730.87C16598.8,1747.67 16660.8,1831.66 16673.2,1831.66C16685.6,1831.66 16685.6,1747.67 16673.2,1730.87C16660.8,1714.08 16598.8,1714.08 16598.8,1730.87Z" style="fill:rgb(172,147,106);"/>
                    </g>
                    <g transform="matrix(1.22073,0,0,-0.779817,-3449.12,3485.78)">
                        <path d="M16598.8,1730.87C16598.8,1747.67 16660.8,1831.66 16673.2,1831.66C16685.6,1831.66 16685.6,1747.67 16673.2,1730.87C16660.8,1714.08 16598.8,1714.08 16598.8,1730.87Z" style="fill:rgb(172,147,106);"/>
                        <path d="M16598.8,1730.87C16598.8,1747.67 16660.8,1831.66 16673.2,1831.66C16685.6,1831.66 16685.6,1747.67 16673.2,1730.87C16660.8,1714.08 16598.8,1714.08 16598.8,1730.87Z" style="fill:rgb(172,147,106);"/>
                    </g>
                    <g transform="matrix(-1.22073,0,0,0.779817,37063.3,866.714)">
                        <path d="M16598.8,1730.87C16598.8,1747.67 16660.8,1831.66 16673.2,1831.66C16685.6,1831.66 16685.6,1747.67 16673.2,1730.87C16660.8,1714.08 16598.8,1714.08 16598.8,1730.87Z" style="fill:rgb(172,147,106);"/>
                        <path d="M16598.8,1730.87C16598.8,1747.67 16660.8,1831.66 16673.2,1831.66C16685.6,1831.66 16685.6,1747.67 16673.2,1730.87C16660.8,1714.08 16598.8,1714.08 16598.8,1730.87Z" style="fill:rgb(172,147,106);"/>
                    </g>
                    <g transform="matrix(0.593876,-1.06653,-0.681313,-0.379376,7989.54,20531.7)">
                        <path d="M16598.8,1730.87C16598.8,1747.67 16660.8,1831.66 16673.2,1831.66C16685.6,1831.66 16685.6,1747.67 16673.2,1730.87C16660.8,1714.08 16598.8,1714.08 16598.8,1730.87Z" style="fill:rgb(172,147,106);"/>
                        <path d="M16598.8,1730.87C16598.8,1747.67 16660.8,1831.66 16673.2,1831.66C16685.6,1831.66 16685.6,1747.67 16673.2,1730.87C16660.8,1714.08 16598.8,1714.08 16598.8,1730.87Z" style="fill:rgb(172,147,106);"/>
                    </g>
                    <g transform="matrix(-0.908869,0.509077,-0.381084,-0.68036,32357.2,-5060.03)">
                        <path d="M16598.8,1730.87C16598.8,1747.67 16660.8,1831.66 16673.2,1831.66C16685.6,1831.66 16685.6,1747.67 16673.2,1730.87C16660.8,1714.08 16598.8,1714.08 16598.8,1730.87Z" style="fill:rgb(172,147,106);"/>
                        <path d="M16598.8,1730.87C16598.8,1747.67 16660.8,1831.66 16673.2,1831.66C16685.6,1831.66 16685.6,1747.67 16673.2,1730.87C16660.8,1714.08 16598.8,1714.08 16598.8,1730.87Z" style="fill:rgb(172,147,106);"/>
                    </g>
                    <g transform="matrix(1.04682,0.627962,0.40115,-0.668724,-1348.57,-7261.68)">
                        <path d="M16598.8,1730.87C16598.8,1747.67 16660.8,1831.66 16673.2,1831.66C16685.6,1831.66 16685.6,1747.67 16673.2,1730.87C16660.8,1714.08 16598.8,1714.08 16598.8,1730.87Z" style="fill:rgb(172,147,106);"/>
                        <path d="M16598.8,1730.87C16598.8,1747.67 16660.8,1831.66 16673.2,1831.66C16685.6,1831.66 16685.6,1747.67 16673.2,1730.87C16660.8,1714.08 16598.8,1714.08 16598.8,1730.87Z" style="fill:rgb(172,147,106);"/>
                    </g>
                    <g transform="matrix(-1.04588,-0.629525,-0.402149,0.668124,34540.6,11425.7)">
                        <path d="M16598.8,1730.87C16598.8,1747.67 16660.8,1831.66 16673.2,1831.66C16685.6,1831.66 16685.6,1747.67 16673.2,1730.87C16660.8,1714.08 16598.8,1714.08 16598.8,1730.87Z" style="fill:rgb(172,147,106);"/>
                        <path d="M16598.8,1730.87C16598.8,1747.67 16660.8,1831.66 16673.2,1831.66C16685.6,1831.66 16685.6,1747.67 16673.2,1730.87C16660.8,1714.08 16598.8,1714.08 16598.8,1730.87Z" style="fill:rgb(172,147,106);"/>
                    </g>
                    <g transform="matrix(-0.612204,1.05612,0.674661,0.391084,25535.5,-16270.8)">
                        <path d="M16598.8,1730.87C16598.8,1747.67 16660.8,1831.66 16673.2,1831.66C16685.6,1831.66 16685.6,1747.67 16673.2,1730.87C16660.8,1714.08 16598.8,1714.08 16598.8,1730.87Z" style="fill:rgb(172,147,106);"/>
                        <path d="M16598.8,1730.87C16598.8,1747.67 16660.8,1831.66 16673.2,1831.66C16685.6,1831.66 16685.6,1747.67 16673.2,1730.87C16660.8,1714.08 16598.8,1714.08 16598.8,1730.87Z" style="fill:rgb(172,147,106);"/>
                    </g>
                    <g transform="matrix(1.12293,-0.478759,-0.305837,-0.717341,-1764.27,11193.5)">
                        <path d="M16598.8,1730.87C16598.8,1747.67 16660.8,1831.66 16673.2,1831.66C16685.6,1831.66 16685.6,1747.67 16673.2,1730.87C16660.8,1714.08 16598.8,1714.08 16598.8,1730.87Z" style="fill:rgb(172,147,106);"/>
                        <path d="M16598.8,1730.87C16598.8,1747.67 16660.8,1831.66 16673.2,1831.66C16685.6,1831.66 16685.6,1747.67 16673.2,1730.87C16660.8,1714.08 16598.8,1714.08 16598.8,1730.87Z" style="fill:rgb(172,147,106);"/>
                    </g>
                    <g transform="matrix(0.229749,1.19891,0.765881,-0.146767,11332,-17883.8)">
                        <path d="M16598.8,1730.87C16598.8,1747.67 16660.8,1831.66 16673.2,1831.66C16685.6,1831.66 16685.6,1747.67 16673.2,1730.87C16660.8,1714.08 16598.8,1714.08 16598.8,1730.87Z" style="fill:rgb(172,147,106);"/>
                        <path d="M16598.8,1730.87C16598.8,1747.67 16660.8,1831.66 16673.2,1831.66C16685.6,1831.66 16685.6,1747.67 16673.2,1730.87C16660.8,1714.08 16598.8,1714.08 16598.8,1730.87Z" style="fill:rgb(172,147,106);"/>
                    </g>
                    <g transform="matrix(1,0,0,1,20.6119,120.208)">
                        <path d="M16598.8,1730.87C16598.8,1747.67 16660.8,1831.66 16673.2,1831.66C16685.6,1831.66 16685.6,1747.67 16673.2,1730.87C16660.8,1714.08 16598.8,1714.08 16598.8,1730.87Z" style="fill:rgb(67,56,37);"/>
                    </g>
                    <g transform="matrix(-0.581007,0.813898,-0.813898,-0.581007,27761.7,-10794.9)">
                        <path d="M16598.8,1730.87C16598.8,1747.67 16660.8,1831.66 16673.2,1831.66C16685.6,1831.66 16685.6,1747.67 16673.2,1730.87C16660.8,1714.08 16598.8,1714.08 16598.8,1730.87Z" style="fill:rgb(67,56,37);"/>
                    </g>
                    <g transform="matrix(1.22073,0,0,-0.779817,-3458.39,3476.04)">
                        <path d="M16598.8,1730.87C16598.8,1747.67 16660.8,1831.66 16673.2,1831.66C16685.6,1831.66 16685.6,1747.67 16673.2,1730.87C16660.8,1714.08 16598.8,1714.08 16598.8,1730.87Z" style="fill:rgb(67,56,37);"/>
                    </g>
                    <g transform="matrix(-1.22073,0,0,0.779817,37054,856.975)">
                        <path d="M16598.8,1730.87C16598.8,1747.67 16660.8,1831.66 16673.2,1831.66C16685.6,1831.66 16685.6,1747.67 16673.2,1730.87C16660.8,1714.08 16598.8,1714.08 16598.8,1730.87Z" style="fill:rgb(67,56,37);"/>
                    </g>
                    <g transform="matrix(0.593876,-1.06653,-0.681313,-0.379376,7980.27,20522)">
                        <path d="M16598.8,1730.87C16598.8,1747.67 16660.8,1831.66 16673.2,1831.66C16685.6,1831.66 16685.6,1747.67 16673.2,1730.87C16660.8,1714.08 16598.8,1714.08 16598.8,1730.87Z" style="fill:rgb(67,56,37);"/>
                    </g>
                    <g transform="matrix(-0.908869,0.509077,-0.381084,-0.68036,32347.9,-5069.77)">
                        <path d="M16598.8,1730.87C16598.8,1747.67 16660.8,1831.66 16673.2,1831.66C16685.6,1831.66 16685.6,1747.67 16673.2,1730.87C16660.8,1714.08 16598.8,1714.08 16598.8,1730.87Z" style="fill:rgb(67,56,37);"/>
                    </g>
                    <g transform="matrix(1.04682,0.627962,0.40115,-0.668724,-1357.84,-7271.42)">
                        <path d="M16598.8,1730.87C16598.8,1747.67 16660.8,1831.66 16673.2,1831.66C16685.6,1831.66 16685.6,1747.67 16673.2,1730.87C16660.8,1714.08 16598.8,1714.08 16598.8,1730.87Z" style="fill:rgb(67,56,37);"/>
                    </g>
                    <g transform="matrix(-1.04588,-0.629525,-0.402149,0.668124,34531.3,11415.9)">
                        <path d="M16598.8,1730.87C16598.8,1747.67 16660.8,1831.66 16673.2,1831.66C16685.6,1831.66 16685.6,1747.67 16673.2,1730.87C16660.8,1714.08 16598.8,1714.08 16598.8,1730.87Z" style="fill:rgb(67,56,37);"/>
                    </g>
                    <g transform="matrix(-0.612204,1.05612,0.674661,0.391084,25526.3,-16280.5)">
                        <path d="M16598.8,1730.87C16598.8,1747.67 16660.8,1831.66 16673.2,1831.66C16685.6,1831.66 16685.6,1747.67 16673.2,1730.87C16660.8,1714.08 16598.8,1714.08 16598.8,1730.87Z" style="fill:rgb(67,56,37);"/>
                    </g>
                    <g transform="matrix(1.12293,-0.478759,-0.305837,-0.717341,-1773.54,11183.7)">
                        <path d="M16598.8,1730.87C16598.8,1747.67 16660.8,1831.66 16673.2,1831.66C16685.6,1831.66 16685.6,1747.67 16673.2,1730.87C16660.8,1714.08 16598.8,1714.08 16598.8,1730.87Z" style="fill:rgb(67,56,37);"/>
                    </g>
                    <g transform="matrix(0.229749,1.19891,0.765881,-0.146767,11322.8,-17893.6)">
                        <path d="M16598.8,1730.87C16598.8,1747.67 16660.8,1831.66 16673.2,1831.66C16685.6,1831.66 16685.6,1747.67 16673.2,1730.87C16660.8,1714.08 16598.8,1714.08 16598.8,1730.87Z" style="fill:rgb(67,56,37);"/>
                    </g>
                </g>
            </g>
        </g>
    </g>
</svg>
