<?xml version="1.0" encoding="UTF-8" standalone="no"?>
<!DOCTYPE svg PUBLIC "-//W3C//DTD SVG 1.1//EN" "http://www.w3.org/Graphics/SVG/1.1/DTD/svg11.dtd">
<svg width="100%" height="100%" viewBox="0 0 259 202" version="1.1" xmlns="http://www.w3.org/2000/svg" xmlns:xlink="http://www.w3.org/1999/xlink" xml:space="preserve" xmlns:serif="http://www.serif.com/" style="fill-rule:evenodd;clip-rule:evenodd;stroke-linejoin:round;stroke-miterlimit:2;">
    <g transform="matrix(1,0,0,1,-16328.6,-3336.48)">
        <g transform="matrix(1,0,0,1,-1021.93,210.062)">
            <path d="M17608.6,3156.41C17608.6,3148.46 17605.5,3140.83 17599.9,3135.2C17594.2,3129.58 17586.6,3126.41 17578.6,3126.41C17529,3126.41 17430.2,3126.41 17380.5,3126.41C17372.6,3126.41 17365,3129.58 17359.3,3135.2C17353.7,3140.83 17350.5,3148.46 17350.5,3156.41C17350.5,3194.53 17350.5,3259.93 17350.5,3298.05C17350.5,3306.01 17353.7,3313.64 17359.3,3319.26C17365,3324.89 17372.6,3328.05 17380.5,3328.05C17430.2,3328.05 17529,3328.05 17578.6,3328.05C17586.6,3328.05 17594.2,3324.89 17599.9,3319.26C17605.5,3313.64 17608.6,3306.01 17608.6,3298.05C17608.6,3259.93 17608.6,3194.53 17608.6,3156.41ZM17378.3,3206.91L17378.3,3270.28C17378.3,3286.85 17391.7,3300.28 17408.3,3300.28L17550.9,3300.28C17567.4,3300.28 17580.9,3286.85 17580.9,3270.28L17580.9,3206.91L17479.4,3246.18L17378.3,3206.91ZM17580.9,3179.15L17580.9,3179.15C17580.9,3172.53 17578.2,3166.18 17573.6,3161.49C17568.9,3156.81 17562.5,3154.18 17555.9,3154.18L17403.3,3154.18C17396.7,3154.18 17390.3,3156.81 17385.6,3161.49C17380.9,3166.18 17378.3,3172.53 17378.3,3179.15L17378.3,3179.15L17479.4,3218.41L17580.9,3179.15Z" style="fill:rgb(218,218,218);"/>
        </g>
    </g>
</svg>
