<?xml version="1.0" encoding="UTF-8" standalone="no"?><!DOCTYPE svg PUBLIC "-//W3C//DTD SVG 1.1//EN" "http://www.w3.org/Graphics/SVG/1.1/DTD/svg11.dtd"><svg width="100%" height="100%" viewBox="0 0 424 367" version="1.1" xmlns="http://www.w3.org/2000/svg" xmlns:xlink="http://www.w3.org/1999/xlink" xml:space="preserve" xmlns:serif="http://www.serif.com/" style="fill-rule:evenodd;clip-rule:evenodd;stroke-linejoin:round;stroke-miterlimit:2;"><g><path d="M192.652,33.179c3.951,-6.844 11.253,-11.059 19.156,-11.059c7.902,-0 15.204,4.215 19.156,11.059c40.257,69.728 133.238,230.775 173.495,300.503c3.952,6.844 3.952,15.276 0,22.12c-3.951,6.844 -11.253,11.06 -19.156,11.06l-346.991,-0c-7.902,-0 -15.205,-4.216 -19.156,-11.06c-3.951,-6.844 -3.951,-15.276 0,-22.12c40.257,-69.728 133.238,-230.775 173.496,-300.503Z" style="fill:#2f2f2f;"/><path d="M192.652,71.624c3.951,-6.844 11.253,-11.06 19.156,-11.06c7.902,-0 15.204,4.216 19.156,11.06c33.541,58.094 102.519,177.568 136.06,235.663c3.951,6.844 3.951,15.276 0,22.12c-3.951,6.843 -11.253,11.059 -19.156,11.059l-272.121,0c-7.902,0 -15.205,-4.216 -19.156,-11.059c-3.951,-6.844 -3.951,-15.276 0,-22.12c33.541,-58.095 102.52,-177.569 136.061,-235.663Z" style="fill:#eb9600;"/><clipPath id="_clip1"><path d="M192.652,71.624c3.951,-6.844 11.253,-11.06 19.156,-11.06c7.902,-0 15.204,4.216 19.156,11.06c33.541,58.094 102.519,177.568 136.06,235.663c3.951,6.844 3.951,15.276 0,22.12c-3.951,6.843 -11.253,11.059 -19.156,11.059l-272.121,0c-7.902,0 -15.205,-4.216 -19.156,-11.059c-3.951,-6.844 -3.951,-15.276 0,-22.12c33.541,-58.095 102.52,-177.569 136.061,-235.663Z"/></clipPath><g clip-path="url(#_clip1)"><path d="M160.642,48.069c3.951,-6.844 11.253,-11.06 19.156,-11.06c7.902,0 15.204,4.216 19.156,11.06c33.541,58.095 102.519,177.569 136.06,235.664c3.951,6.843 3.951,15.275 0,22.119c-3.951,6.844 -11.253,11.06 -19.156,11.06l-272.121,-0c-7.902,-0 -15.205,-4.216 -19.156,-11.06c-3.951,-6.844 -3.951,-15.276 0,-22.119c33.541,-58.095 102.52,-177.569 136.061,-235.664Z" style="fill:#ffd52f;"/></g><path d="M179.798,142.048c-0,-2.14 4.026,-3.21 12.077,-3.21l8.525,-0c7.01,-0.756 12.599,-1.133 16.767,-1.133c4.263,-0 16.334,12.72 16.334,12.72l-15.055,77.086c-0.048,0.629 -0.308,1.18 -0.782,1.652c-0.473,0.472 -1.125,0.819 -1.954,1.039c-0.828,0.22 -1.693,0.378 -2.593,0.472c-0.9,0.094 -1.918,0.142 -3.055,0.142c-0.615,-0 -1.539,-0.032 -2.77,-0.095c-1.232,-0.063 -2.155,-0.094 -2.771,-0.094c-1.279,-0 -3.15,0.063 -5.612,0.189c-2.463,0.126 -0.316,10.317 -1.594,10.317c-0,-0 -11.111,-10.758 -11.514,-11.262c-0.403,-0.503 -0.722,-1.149 -0.959,-1.936c-0.237,-0.786 -0.426,-1.542 -0.569,-2.266c-0.142,-0.724 -0.236,-1.653 -0.284,-2.786c-0.047,-1.133 -0.083,-2.062 -0.106,-2.786c-0.024,-0.723 -0.036,-1.684 -0.036,-2.88l-4.049,-75.169Zm3.019,138.817c-0.341,-0.479 -1.456,-15.109 -1.456,-15.109c-0,-4.974 0.236,-9.428 0.71,-13.362c0.474,-3.935 1.089,-5.902 1.847,-5.902l13.925,-0c4.926,-0 8.857,0.063 11.793,0.188c2.937,0.126 5.175,0.331 6.714,0.614c1.539,0.284 2.534,0.614 2.984,0.992c0.45,0.378 10.128,10.128 10.128,10.128c-0.095,0.63 -10.199,22.483 -11.407,22.923c-1.208,0.441 -2.818,0.787 -4.831,1.039c-2.013,0.252 -4.132,0.457 -6.359,0.614c-2.226,0.157 -4.653,0.236 -7.282,0.236c-2.628,0 -3.784,10.034 -5.678,10.034c-1.895,0 -9.618,-10.329 -11.088,-12.395Z" style="fill:#eb9600;fill-rule:nonzero;"/><g transform="matrix(0.752321,0,0,1,10.4313,0)"><text x="230.089px" y="290.238px" style="font-family:'BowlbyOneSC-Regular', 'Bowlby One SC';font-stretch:ultra-condensed;font-size:193.399px;fill:#313131;">!</text></g></g></svg>