<?xml version="1.0" encoding="UTF-8" standalone="no"?><!DOCTYPE svg PUBLIC "-//W3C//DTD SVG 1.1//EN" "http://www.w3.org/Graphics/SVG/1.1/DTD/svg11.dtd"><svg width="100%" height="100%" viewBox="0 0 1256 367" version="1.1" xmlns="http://www.w3.org/2000/svg" xmlns:xlink="http://www.w3.org/1999/xlink" xml:space="preserve" xmlns:serif="http://www.serif.com/" style="fill-rule:evenodd;clip-rule:evenodd;stroke-linejoin:round;stroke-miterlimit:2;"><g><rect x="-0" y="133" width="1255.09" height="175.187" style="fill:#2f2f2f;"/><rect x="-0" y="147.833" width="1255.09" height="145.522" style="fill:#ffd52f;"/><clipPath id="_clip1"><rect x="-0" y="147.833" width="1255.09" height="145.522"/></clipPath><g clip-path="url(#_clip1)"><path d="M165.573,137.911l-84.647,0l-92.137,165.365l84.647,0l92.137,-165.365Z" style="fill:#eb9600;"/><path d="M315.234,137.911l-84.646,0l-92.137,165.365l84.646,0l92.137,-165.365Z" style="fill:#eb9600;"/><path d="M464.896,137.911l-84.647,0l-92.137,165.365l84.647,0l92.137,-165.365Z" style="fill:#eb9600;"/><path d="M1039.53,137.911l84.646,0l92.137,165.365l-84.646,0l-92.137,-165.365Z" style="fill:#eb9600;"/><path d="M889.863,137.911l84.647,0l92.137,165.365l-84.646,0l-92.138,-165.365Z" style="fill:#eb9600;"/><path d="M740.202,137.911l84.646,0l92.137,165.365l-84.646,0l-92.137,-165.365Z" style="fill:#eb9600;"/></g><g><path d="M182.529,137.911l-84.646,0l-92.137,165.365l84.646,0l92.137,-165.365Z" style="fill:#2f2f2f;"/><path d="M332.191,137.911l-84.646,0l-92.137,165.365l84.646,0l92.137,-165.365Z" style="fill:#2f2f2f;"/><path d="M481.853,137.911l-84.647,0l-92.137,165.365l84.647,0l92.137,-165.365Z" style="fill:#2f2f2f;"/><path d="M1056.48,137.911l84.646,0l92.137,165.365l-84.646,0l-92.137,-165.365Z" style="fill:#2f2f2f;"/><path d="M906.82,137.911l84.647,0l92.137,165.365l-84.647,0l-92.137,-165.365Z" style="fill:#2f2f2f;"/><path d="M757.159,137.911l84.646,0l92.137,165.365l-84.646,0l-92.137,-165.365Z" style="fill:#2f2f2f;"/></g></g><g><path d="M608.388,33.179c3.951,-6.844 11.253,-11.059 19.156,-11.059c7.902,-0 15.205,4.215 19.156,11.059c40.257,69.728 133.238,230.775 173.495,300.503c3.952,6.844 3.952,15.276 0,22.12c-3.951,6.844 -11.253,11.06 -19.156,11.06l-346.991,-0c-7.902,-0 -15.205,-4.216 -19.156,-11.06c-3.951,-6.844 -3.951,-15.276 0,-22.12c40.258,-69.728 133.238,-230.775 173.496,-300.503Z" style="fill:#2f2f2f;"/><path d="M608.388,71.624c3.951,-6.844 11.253,-11.06 19.156,-11.06c7.902,-0 15.205,4.216 19.156,11.06c33.541,58.094 102.519,177.568 136.06,235.663c3.952,6.844 3.952,15.276 0,22.12c-3.951,6.843 -11.253,11.059 -19.156,11.059l-272.121,0c-7.902,0 -15.204,-4.216 -19.156,-11.059c-3.951,-6.844 -3.951,-15.276 0,-22.12c33.541,-58.095 102.52,-177.569 136.061,-235.663Z" style="fill:#eb9600;"/><clipPath id="_clip2"><path d="M608.388,71.624c3.951,-6.844 11.253,-11.06 19.156,-11.06c7.902,-0 15.205,4.216 19.156,11.06c33.541,58.094 102.519,177.568 136.06,235.663c3.952,6.844 3.952,15.276 0,22.12c-3.951,6.843 -11.253,11.059 -19.156,11.059l-272.121,0c-7.902,0 -15.204,-4.216 -19.156,-11.059c-3.951,-6.844 -3.951,-15.276 0,-22.12c33.541,-58.095 102.52,-177.569 136.061,-235.663Z"/></clipPath><g clip-path="url(#_clip2)"><path d="M576.378,48.069c3.951,-6.844 11.253,-11.06 19.156,-11.06c7.902,0 15.205,4.216 19.156,11.06c33.541,58.095 102.519,177.569 136.06,235.664c3.952,6.843 3.952,15.275 0,22.119c-3.951,6.844 -11.253,11.06 -19.156,11.06l-272.121,-0c-7.902,-0 -15.204,-4.216 -19.156,-11.06c-3.951,-6.844 -3.951,-15.276 0,-22.119c33.541,-58.095 102.52,-177.569 136.061,-235.664Z" style="fill:#a01000;"/></g><path d="M595.534,142.048c-0,-2.14 4.026,-3.21 12.077,-3.21l8.526,-0c7.009,-0.756 12.598,-1.133 16.766,-1.133c4.263,-0 16.334,12.72 16.334,12.72l-15.055,77.086c-0.048,0.629 -0.308,1.18 -0.782,1.652c-0.473,0.472 -1.125,0.819 -1.953,1.039c-0.829,0.22 -1.694,0.378 -2.594,0.472c-0.899,0.094 -1.918,0.142 -3.054,0.142c-0.616,-0 -1.54,-0.032 -2.771,-0.095c-1.232,-0.063 -2.155,-0.094 -2.771,-0.094c-1.279,-0 -3.149,0.063 -5.612,0.189c-2.463,0.126 -0.315,10.317 -1.594,10.317c-0,-0 -11.111,-10.758 -11.514,-11.262c-0.403,-0.503 -0.722,-1.149 -0.959,-1.936c-0.237,-0.786 -0.426,-1.542 -0.568,-2.266c-0.142,-0.724 -0.237,-1.653 -0.285,-2.786c-0.047,-1.133 -0.082,-2.062 -0.106,-2.786c-0.024,-0.723 -0.036,-1.684 -0.036,-2.88l-4.049,-75.169Zm3.019,138.817c-0.341,-0.479 -1.456,-15.109 -1.456,-15.109c-0,-4.974 0.237,-9.428 0.71,-13.362c0.474,-3.935 1.09,-5.902 1.847,-5.902l13.925,-0c4.926,-0 8.857,0.063 11.793,0.188c2.937,0.126 5.175,0.331 6.714,0.614c1.539,0.284 2.534,0.614 2.984,0.992c0.45,0.378 10.128,10.128 10.128,10.128c-0.095,0.63 -10.199,22.483 -11.407,22.923c-1.208,0.441 -2.818,0.787 -4.831,1.039c-2.013,0.252 -4.132,0.457 -6.358,0.614c-2.226,0.157 -4.654,0.236 -7.282,0.236c-2.629,0 -3.785,10.034 -5.679,10.034c-1.895,0 -9.618,-10.329 -11.088,-12.395Z" style="fill:#eb9600;fill-rule:nonzero;"/><path d="M605.662,152.177c0,-2.141 4.026,-3.211 12.078,-3.211l8.525,0c7.01,-0.755 12.598,-1.133 16.766,-1.133c4.263,-0 6.394,1.259 6.394,3.777l-5.115,86.029c-0.047,0.629 -0.308,1.18 -0.781,1.652c-0.474,0.473 -1.125,0.819 -1.954,1.039c-0.829,0.221 -1.693,0.378 -2.593,0.472c-0.9,0.095 -1.918,0.142 -3.055,0.142c-0.616,0 -1.539,-0.031 -2.771,-0.094c-1.231,-0.063 -2.155,-0.095 -2.77,-0.095c-1.279,0 -3.15,0.063 -5.613,0.189c-2.463,0.126 -4.334,0.189 -5.612,0.189l-6.11,-0c-0.521,-0.252 -0.983,-0.63 -1.386,-1.133c-0.402,-0.504 -0.722,-1.149 -0.959,-1.936c-0.236,-0.787 -0.426,-1.543 -0.568,-2.267c-0.142,-0.724 -0.237,-1.652 -0.284,-2.785c-0.048,-1.134 -0.083,-2.062 -0.107,-2.786c-0.023,-0.724 -0.035,-1.684 -0.035,-2.88l-4.05,-75.169Zm2.203,138.061l-0.64,-14.354c0,-4.973 0.237,-9.427 0.711,-13.362c0.473,-3.935 1.089,-5.902 1.847,-5.902l13.924,-0c4.926,-0 8.857,0.063 11.794,0.189c2.936,0.126 5.174,0.33 6.713,0.614c1.54,0.283 2.534,0.613 2.984,0.991c0.45,0.378 0.675,0.913 0.675,1.606l0,29.84c-0.095,0.63 -0.746,1.165 -1.954,1.606c-1.207,0.44 -2.818,0.787 -4.831,1.039c-2.012,0.251 -4.132,0.456 -6.358,0.613c-2.226,0.158 -4.653,0.236 -7.282,0.236l-6.785,0c-1.894,0 -3.801,-0.015 -5.719,-0.047c-1.918,-0.031 -3.019,-0.047 -3.303,-0.047l-0,-1.511c-0.142,-0.189 -0.462,-0.441 -0.959,-0.755c-0.498,-0.315 -0.77,-0.567 -0.817,-0.756Z" style="fill:#313131;fill-rule:nonzero;"/></g></svg>