<?xml version="1.0" encoding="UTF-8" standalone="no"?><!DOCTYPE svg PUBLIC "-//W3C//DTD SVG 1.1//EN" "http://www.w3.org/Graphics/SVG/1.1/DTD/svg11.dtd"><svg width="100%" height="100%" viewBox="0 0 268 244" version="1.1" xmlns="http://www.w3.org/2000/svg" xmlns:xlink="http://www.w3.org/1999/xlink" xml:space="preserve" xmlns:serif="http://www.serif.com/" style="fill-rule:evenodd;clip-rule:evenodd;stroke-linejoin:round;stroke-miterlimit:2;"><g><g><path d="M13.292,168.125c5.812,-25.671 43.846,-31.261 45.247,-73.366l149.486,1.413c6.251,44.865 40.985,54.081 50.444,75.898l-245.177,-3.945Z" style="fill:#c53c3c;"/><clipPath id="_clip1"><path d="M13.292,168.125c5.812,-25.671 43.846,-31.261 45.247,-73.366l149.486,1.413c6.251,44.865 40.985,54.081 50.444,75.898l-245.177,-3.945Z"/></clipPath><g clip-path="url(#_clip1)"><path d="M56.072,92.385l-59.028,75.87l10.331,12.105c14.149,-25.276 67.011,-35.846 68.336,-61.122l-19.639,-26.853Z" style="fill:#d16464;"/><path d="M192.51,117.147c5.548,28.585 24.984,32.714 15.656,53.057l73.062,1.74l-80.02,-84.08l-8.698,29.283Z" style="fill:#b33535;"/><path d="M259.788,233.994c-46.399,7.888 -216.522,0.478 -254.59,-0.564c-10.572,-0.289 -3.461,-74.023 7.451,-75.128c39.849,-4.035 223.555,-3.95 245.324,3.382c11.666,3.93 13.49,70.325 1.815,72.31Z" style="fill:#b33535;"/><path d="M140.349,150.62c-54.785,0.138 -78.38,-29.114 -77.526,-45.515c0.955,-18.328 28.914,-45.881 75.308,-45.528c38.892,0.295 79.81,16.681 75.869,50.484c-2.187,18.759 -30.255,40.449 -73.651,40.559Z" style="fill:#b33535;"/></g><path d="M259.788,239.792c-46.399,7.888 -216.522,0.478 -254.59,-0.563c-10.572,-0.29 -3.461,-74.023 7.451,-75.128c39.849,-4.036 223.555,-3.951 245.324,3.382c11.666,3.929 13.49,70.324 1.815,72.309Z" style="fill:#742323;"/><clipPath id="_clip2"><path d="M259.788,239.792c-46.399,7.888 -216.522,0.478 -254.59,-0.563c-10.572,-0.29 -3.461,-74.023 7.451,-75.128c39.849,-4.036 223.555,-3.951 245.324,3.382c11.666,3.929 13.49,70.324 1.815,72.309Z"/></clipPath><g clip-path="url(#_clip2)"><path d="M237.525,161.215c-0,-0 10.493,40.355 -15.108,55.579c-25.428,15.122 -98.513,19.305 -114.838,35.227l201.573,-6.263l-21.527,-101.765l-50.1,17.222Z" style="fill:#651e1e;"/><path d="M4.313,161.181l139.477,-2.138c0,0 -75.956,10.051 -106.879,24.315c-26.659,12.297 -25.89,49.514 -41.416,51.837l-4.542,-72.144l13.36,-1.87Z" style="fill:#852828;"/></g><path d="M102.246,188.88c9.499,-3.727 54.781,-3.655 64.208,0c7.219,2.799 -0.44,19.104 -7.647,21.932c-9.499,3.727 -39.92,4.088 -49.346,0.433c-7.304,-2.832 -14.507,-19.504 -7.215,-22.365Z" style="fill:#cecece;"/><clipPath id="_clip3"><path d="M102.246,188.88c9.499,-3.727 54.781,-3.655 64.208,0c7.219,2.799 -0.44,19.104 -7.647,21.932c-9.499,3.727 -39.92,4.088 -49.346,0.433c-7.304,-2.832 -14.507,-19.504 -7.215,-22.365Z"/></clipPath><g clip-path="url(#_clip3)"><path d="M164.995,188.415c0.554,0.148 1.042,0.303 1.459,0.465c7.219,2.799 -0.44,19.104 -7.647,21.932c-9.499,3.727 -39.92,4.088 -49.346,0.433c-2.063,-0.8 -4.117,-2.703 -5.84,-5.088c0.518,0.335 1.041,0.609 1.564,0.813c9.427,3.655 39.848,3.294 49.347,-0.433c5.529,-2.17 11.324,-12.272 10.463,-18.122Z" style="fill:#b8b8b8;"/><path d="M99.88,205.172c2.266,-13.278 38.938,-14.47 61.816,-18.625l-30.37,-5.081l-38.085,4.418l6.639,19.288Z" style="fill:#e3e3e3;"/></g></g><path d="M191.222,66.728c10.174,-1.433 16.598,-13.184 21.21,-22.365c5.099,-10.148 11.543,-31.623 9.379,-38.524c-2.164,-6.902 -16.307,-7.336 -22.365,-2.886c-6.613,4.858 -6.715,26.118 -17.314,32.032c-10.99,6.132 -32.346,5.237 -48.625,4.761c-16.647,-0.487 -40.22,-1.563 -51.258,-7.683c-9.524,-5.281 -8.597,-24.679 -14.97,-29.038c-6.373,-4.359 -21.283,-4.509 -23.267,2.886c-1.984,7.395 5.411,31.202 11.363,41.483c5.284,9.126 13.869,19.021 24.349,20.2c12.565,1.413 33.585,-11.588 51.041,-11.724c18.584,-0.144 46.846,12.776 60.457,10.858Z" style="fill:#742323;"/><clipPath id="_clip4"><path d="M191.222,66.728c10.174,-1.433 16.598,-13.184 21.21,-22.365c5.099,-10.148 11.543,-31.623 9.379,-38.524c-2.164,-6.902 -16.307,-7.336 -22.365,-2.886c-6.613,4.858 -6.715,26.118 -17.314,32.032c-10.99,6.132 -32.346,5.237 -48.625,4.761c-16.647,-0.487 -40.22,-1.563 -51.258,-7.683c-9.524,-5.281 -8.597,-24.679 -14.97,-29.038c-6.373,-4.359 -21.283,-4.509 -23.267,2.886c-1.984,7.395 5.411,31.202 11.363,41.483c5.284,9.126 13.869,19.021 24.349,20.2c12.565,1.413 33.585,-11.588 51.041,-11.724c18.584,-0.144 46.846,12.776 60.457,10.858Z"/></clipPath><g clip-path="url(#_clip4)"><path d="M72.926,4.608c-2.053,-0.342 -18.16,0.233 -21,5.609c-3.99,7.553 6.498,45.317 6.498,45.317c-8.658,1.388 -18.68,-20.791 -29.892,-63.546l52.499,6.84c0,0 -6.053,6.122 -8.105,5.78Z" style="fill:#852828;"/><path d="M213.327,-2.11c7.13,18.861 -12.685,63.849 -50.496,53.544l44.62,30.53l24.1,-73.896l-18.224,-10.178Z" style="fill:#651e1e;"/><path d="M211.566,-0.85c-10.406,4.67 -11.78,15.453 -20.421,33.916c-2.888,6.172 -23.316,9.1 -38.07,6.727l41.385,-43.401l17.106,2.758Z" style="fill:#852828;"/><path d="M71.529,9.74c0.747,13.313 -4.119,27.499 8.106,32.982c5.775,2.59 21.663,-2.374 46.666,-3.247l-54.772,-29.735Z" style="fill:#651e1e;"/><path d="M64.175,63.33c-3.15,-5.041 -6.041,-9.324 -1.002,-9.878c7.299,-0.802 21.479,9.136 44.796,5.066l-35.719,10.901l-8.075,-6.089Z" style="fill:#651e1e;"/></g><g><path d="M134.745,145.546c-55.179,0.138 -78.943,-29.114 -78.083,-45.515c0.962,-18.328 29.122,-45.881 75.849,-45.528c39.171,0.296 80.382,16.682 76.413,50.484c-2.203,18.759 -30.472,40.449 -74.179,40.559Z" style="fill:#ededed;"/><clipPath id="_clip5"><path d="M134.745,145.546c-55.179,0.138 -78.943,-29.114 -78.083,-45.515c0.962,-18.328 29.122,-45.881 75.849,-45.528c39.171,0.296 80.382,16.682 76.413,50.484c-2.203,18.759 -30.472,40.449 -74.179,40.559Z"/></clipPath><g clip-path="url(#_clip5)"><path d="M197.404,74.773c8.361,7.776 12.975,17.826 11.52,30.214c-2.203,18.759 -30.472,40.449 -74.179,40.559c-39.249,0.098 -62.603,-14.674 -72.508,-29.115c12.092,11.685 33.696,21.803 66.202,21.722c43.707,-0.11 71.976,-21.8 74.179,-40.559c1.03,-8.772 -0.982,-16.371 -5.214,-22.821Z" style="fill:#d9d9d9;"/></g><path d="M130.851,41.319c49.302,-0.137 70.535,28.806 69.766,45.034c-0.859,18.134 -26.02,45.395 -67.769,45.046c-34.999,-0.292 -71.822,-16.505 -68.275,-49.95c1.968,-18.561 27.226,-40.021 66.278,-40.13Z" style="fill:#bbb;"/><clipPath id="_clip6"><path d="M130.851,41.319c49.302,-0.137 70.535,28.806 69.766,45.034c-0.859,18.134 -26.02,45.395 -67.769,45.046c-34.999,-0.292 -71.822,-16.505 -68.275,-49.95c1.968,-18.561 27.226,-40.021 66.278,-40.13Z"/></clipPath><g clip-path="url(#_clip6)"><path d="M185.075,58.164c10.979,9.157 15.92,20.21 15.542,28.189c-0.859,18.134 -26.02,45.395 -67.769,45.046c-24.769,-0.207 -50.451,-8.387 -62.092,-25.007c13.323,10.639 33.753,15.923 53.598,16.089c41.749,0.349 66.91,-26.913 67.769,-45.047c0.261,-5.504 -2.01,-12.472 -7.048,-19.27Z" style="fill:#a6a6a6;"/><path d="M179.847,122.569c0.944,-6.88 -4.402,-13.761 -9.149,-18.89c7.228,1.276 14.194,3.865 20.692,8.79l-11.543,10.1Z" style="fill:#a6a6a6;"/></g><path d="M132.107,58.095c27.045,-0.072 38.693,15.273 38.271,23.876c-0.471,9.615 -14.274,24.068 -37.176,23.883c-19.199,-0.155 -39.398,-8.751 -37.453,-26.483c1.08,-9.84 14.936,-21.218 36.358,-21.276Z" style="fill:#d5d5d5;"/><path d="M131.742,59.541c25.166,-0.068 36.004,14.211 35.612,22.217c-0.439,8.946 -13.282,22.395 -34.593,22.223c-17.865,-0.144 -36.661,-8.143 -34.851,-24.643c1.005,-9.156 13.898,-19.744 33.832,-19.797Z" style="fill:#ededed;"/><clipPath id="_clip7"><path d="M131.742,59.541c25.166,-0.068 36.004,14.211 35.612,22.217c-0.439,8.946 -13.282,22.395 -34.593,22.223c-17.865,-0.144 -36.661,-8.143 -34.851,-24.643c1.005,-9.156 13.898,-19.744 33.832,-19.797Z"/></clipPath><g clip-path="url(#_clip7)"><path d="M99.815,100.636c-3.747,-38.725 29.608,-44.092 66.602,-31.706l-19.647,-15.05l-44.645,-1.247l-16.004,35.311l13.694,12.692Z" style="fill:#e3e3e3;"/></g><g><path d="M137.307,110.66c7.38,-0.384 12.22,4.445 12.134,9.293c-0.103,5.83 -4.565,9.543 -12.356,10.06c-6.608,0.439 -11.804,-5.637 -10.933,-10.828c0.83,-4.948 4.259,-8.167 11.155,-8.525Z" style="fill:#adadad;"/><path d="M163.428,105.665c7.228,2.272 10.191,8.547 8.414,13.084c-2.138,5.456 -7.725,7.364 -15.394,5.072c-6.506,-1.944 -9.376,-9.522 -6.724,-14.103c2.528,-4.366 6.95,-6.175 13.704,-4.053Z" style="fill:#adadad;"/><path d="M113.65,109.116c7.381,-0.369 12.22,4.276 12.134,8.939c-0.103,5.608 -4.565,9.18 -12.355,9.677c-6.609,0.422 -11.805,-5.422 -10.934,-10.416c0.83,-4.76 4.26,-7.856 11.155,-8.2Z" style="fill:#adadad;"/><path d="M93.298,99.465c7.225,-0.357 11.962,4.144 11.878,8.664c-0.101,5.435 -4.469,8.897 -12.095,9.379c-6.469,0.409 -11.556,-5.255 -10.703,-10.095c0.812,-4.613 4.169,-7.614 10.92,-7.948Z" style="fill:#adadad;"/><path d="M79.056,86.118c7.236,-1.49 12.677,1.905 13.256,6.091c0.696,5.034 -3.202,8.931 -10.825,10.6c-6.466,1.416 -12.429,-2.996 -12.28,-7.601c0.142,-4.389 3.088,-7.698 9.849,-9.09Z" style="fill:#adadad;"/><path d="M78.697,71.582c7.244,-1.442 12.589,1.351 13.072,4.932c0.58,4.307 -3.391,7.741 -11.024,9.345c-6.475,1.361 -12.318,-2.293 -12.066,-6.251c0.24,-3.771 3.25,-6.679 10.018,-8.026Z" style="fill:#adadad;"/><path d="M88.934,57.44c7.198,-1.418 12.479,1.174 12.93,4.549c0.542,4.059 -3.426,7.33 -11.013,8.905c-6.435,1.336 -12.203,-2.066 -11.921,-5.802c0.268,-3.56 3.278,-6.327 10.004,-7.652Z" style="fill:#adadad;"/><path d="M108.301,47.712c7.316,-0.546 12.246,2.338 12.288,5.435c0.051,3.725 -4.281,6.277 -12,6.924c-6.548,0.55 -11.865,-3.115 -11.137,-6.464c0.694,-3.191 4.014,-5.385 10.849,-5.895Z" style="fill:#adadad;"/><path d="M132.025,44.45c7.335,-0.118 12.089,3.049 11.95,6.143c-0.167,3.721 -4.64,6.016 -12.384,6.212c-6.569,0.167 -11.663,-3.803 -10.741,-7.103c0.88,-3.146 4.322,-5.142 11.175,-5.252Z" style="fill:#adadad;"/><path d="M155.615,47.309c7.422,-0.109 12.234,2.966 12.095,5.966c-0.166,3.609 -4.69,5.831 -12.525,6.015c-6.646,0.157 -11.803,-3.696 -10.872,-6.896c0.887,-3.049 4.369,-4.983 11.302,-5.085Z" style="fill:#adadad;"/><path d="M133.007,73.249c10.782,-0.03 15.426,6.433 15.258,10.056c-0.188,4.05 -5.691,10.137 -14.822,10.059c-7.654,-0.065 -15.708,-3.685 -14.932,-11.154c0.43,-4.144 5.955,-8.937 14.496,-8.961Z" style="fill:#a6a6a6;"/><path d="M132.238,72.76c10.195,-0.027 14.585,5.757 14.426,9c-0.177,3.624 -5.38,9.072 -14.013,9.002c-7.237,-0.058 -14.851,-3.298 -14.117,-9.982c0.407,-3.709 5.629,-7.998 13.704,-8.02Z" style="fill:#bbb;"/><path d="M136.263,109.268c7.381,-0.383 12.22,4.445 12.134,9.293c-0.103,5.83 -4.565,9.544 -12.355,10.061c-6.609,0.438 -11.805,-5.637 -10.934,-10.829c0.83,-4.948 4.26,-8.167 11.155,-8.525Z" style="fill:#d4d4d4;"/><path d="M162.384,104.274c7.228,2.271 10.192,8.547 8.414,13.083c-2.138,5.457 -7.725,7.364 -15.394,5.072c-6.505,-1.944 -9.376,-9.521 -6.723,-14.102c2.527,-4.366 6.949,-6.175 13.703,-4.053Z" style="fill:#d4d4d4;"/><path d="M112.607,107.724c7.38,-0.369 12.22,4.276 12.134,8.939c-0.104,5.608 -4.566,9.18 -12.356,9.678c-6.608,0.422 -11.804,-5.423 -10.934,-10.417c0.83,-4.759 4.26,-7.855 11.156,-8.2Z" style="fill:#d4d4d4;"/><path d="M92.254,98.073c7.225,-0.357 11.963,4.145 11.879,8.664c-0.102,5.436 -4.47,8.898 -12.096,9.38c-6.469,0.409 -11.556,-5.256 -10.703,-10.096c0.812,-4.613 4.17,-7.614 10.92,-7.948Z" style="fill:#d4d4d4;"/><path d="M78.012,84.726c7.236,-1.49 12.677,1.906 13.256,6.091c0.696,5.034 -3.202,8.931 -10.824,10.601c-6.467,1.416 -12.43,-2.997 -12.281,-7.602c0.142,-4.389 3.088,-7.698 9.849,-9.09Z" style="fill:#d4d4d4;"/><path d="M77.654,70.19c7.243,-1.442 12.588,1.351 13.071,4.932c0.581,4.307 -3.391,7.741 -11.024,9.346c-6.475,1.361 -12.318,-2.294 -12.066,-6.251c0.241,-3.772 3.251,-6.68 10.019,-8.027Z" style="fill:#d4d4d4;"/><path d="M87.89,56.048c7.199,-1.418 12.479,1.175 12.93,4.549c0.542,4.059 -3.426,7.331 -11.012,8.905c-6.435,1.336 -12.204,-2.066 -11.922,-5.801c0.268,-3.561 3.278,-6.328 10.004,-7.653Z" style="fill:#d4d4d4;"/><path d="M107.258,46.32c7.315,-0.546 12.246,2.338 12.288,5.435c0.05,3.725 -4.281,6.277 -12.001,6.925c-6.548,0.549 -11.865,-3.116 -11.136,-6.465c0.694,-3.191 4.013,-5.385 10.849,-5.895Z" style="fill:#d4d4d4;"/><path d="M130.981,43.058c7.336,-0.118 12.089,3.049 11.95,6.143c-0.167,3.722 -4.64,6.016 -12.384,6.213c-6.569,0.166 -11.663,-3.803 -10.74,-7.104c0.879,-3.145 4.321,-5.142 11.174,-5.252Z" style="fill:#d4d4d4;"/><path d="M154.572,45.918c7.421,-0.109 12.233,2.965 12.095,5.965c-0.167,3.609 -4.691,5.831 -12.526,6.015c-6.646,0.157 -11.803,-3.696 -10.872,-6.895c0.888,-3.05 4.369,-4.983 11.303,-5.085Z" style="fill:#d4d4d4;"/><path d="M131.451,127.857c-4.224,-1.759 -6.998,-6.161 -6.343,-10.064c0.83,-4.948 4.26,-8.167 11.155,-8.525c3.818,-0.198 6.956,0.998 9.083,2.87c-1.74,-0.743 -3.802,-1.135 -6.114,-1.014c-6.895,0.358 -10.325,3.577 -11.155,8.524c-0.484,2.887 0.907,6.047 3.374,8.209Z" style="fill:#e4e4e4;"/><path d="M154.384,122.067c-5.779,-2.39 -8.213,-9.406 -5.703,-13.74c2.527,-4.366 6.949,-6.175 13.703,-4.053c1.957,0.614 3.601,1.523 4.923,2.611c-0.613,-0.286 -1.264,-0.539 -1.954,-0.756c-6.754,-2.122 -11.176,-0.313 -13.703,4.053c-2.024,3.495 -0.833,8.734 2.734,11.885Z" style="fill:#e4e4e4;"/><path d="M107.637,125.54c-4.136,-1.733 -6.832,-5.909 -6.186,-9.616c0.83,-4.759 4.26,-7.855 11.156,-8.2c3.913,-0.196 7.113,1.019 9.242,2.898c-1.773,-0.758 -3.891,-1.161 -6.274,-1.042c-6.895,0.344 -10.325,3.44 -11.155,8.2c-0.474,2.717 0.849,5.686 3.217,7.76Z" style="fill:#e4e4e4;"/><path d="M87.384,115.339c-4.046,-1.681 -6.683,-5.726 -6.05,-9.318c0.812,-4.613 4.17,-7.614 10.92,-7.948c3.873,-0.191 7.031,1.013 9.114,2.868c-1.736,-0.736 -3.811,-1.128 -6.145,-1.012c-6.75,0.334 -10.108,3.335 -10.92,7.948c-0.46,2.607 0.805,5.454 3.081,7.462Z" style="fill:#e4e4e4;"/><path d="M73.614,100.823c-3.279,-1.362 -5.544,-4.147 -5.451,-7.007c0.142,-4.389 3.088,-7.698 9.849,-9.09c4.875,-1.003 8.934,0.21 11.242,2.388c-2.232,-0.895 -5.077,-1.19 -8.273,-0.532c-6.761,1.392 -9.707,4.701 -9.849,9.09c-0.061,1.876 0.893,3.72 2.482,5.151Z" style="fill:#e4e4e4;"/><path d="M72.325,83.895c-2.913,-1.168 -4.837,-3.371 -4.69,-5.678c0.241,-3.772 3.251,-6.68 10.019,-8.027c5.316,-1.058 9.609,0.165 11.709,2.306c-2.27,-0.863 -5.29,-1.137 -8.741,-0.45c-6.767,1.347 -9.778,4.255 -10.018,8.026c-0.088,1.377 0.563,2.718 1.721,3.823Z" style="fill:#e4e4e4;"/><path d="M82.328,68.957c-2.787,-1.095 -4.603,-3.121 -4.442,-5.256c0.268,-3.561 3.278,-6.328 10.004,-7.653c5.438,-1.071 9.781,0.146 11.775,2.261c-2.258,-0.836 -5.306,-1.095 -8.806,-0.405c-6.726,1.325 -9.736,4.092 -10.004,7.652c-0.092,1.221 0.462,2.405 1.473,3.401Z" style="fill:#e4e4e4;"/><path d="M100.83,57.709c-3.02,-1.243 -4.871,-3.428 -4.421,-5.494c0.694,-3.191 4.013,-5.385 10.849,-5.895c5.195,-0.388 9.187,0.954 11.08,2.874c-2.088,-0.827 -4.865,-1.261 -8.112,-1.018c-6.835,0.51 -10.155,2.704 -10.849,5.895c-0.271,1.247 0.296,2.537 1.453,3.638Z" style="fill:#e4e4e4;"/><path d="M124.427,54.292c-3.261,-1.388 -5.222,-3.828 -4.62,-5.982c0.879,-3.145 4.321,-5.142 11.174,-5.252c4.878,-0.078 8.614,1.296 10.53,3.135c-1.981,-0.824 -4.554,-1.328 -7.561,-1.279c-6.853,0.11 -10.295,2.106 -11.174,5.252c-0.385,1.375 0.275,2.866 1.651,4.126Z" style="fill:#e4e4e4;"/><path d="M147.769,56.731c-3.193,-1.359 -5.096,-3.678 -4.5,-5.728c0.888,-3.05 4.369,-4.983 11.303,-5.085c5.046,-0.074 8.885,1.323 10.783,3.169c-2.026,-0.841 -4.688,-1.36 -7.814,-1.314c-6.934,0.102 -10.416,2.036 -11.303,5.085c-0.374,1.287 0.236,2.679 1.531,3.873Z" style="fill:#e4e4e4;"/></g><path d="M180.678,118.67c0.945,-6.881 -4.402,-13.761 -9.149,-18.89c7.228,1.276 14.194,3.864 20.692,8.789l-11.543,10.101Z" style="fill:#ededed;"/></g></g></svg>