<?xml version="1.0" encoding="UTF-8" standalone="no"?><!DOCTYPE svg PUBLIC "-//W3C//DTD SVG 1.1//EN" "http://www.w3.org/Graphics/SVG/1.1/DTD/svg11.dtd"><svg width="100%" height="100%" viewBox="0 0 633 271" version="1.1" xmlns="http://www.w3.org/2000/svg" xmlns:xlink="http://www.w3.org/1999/xlink" xml:space="preserve" xmlns:serif="http://www.serif.com/" style="fill-rule:evenodd;clip-rule:evenodd;stroke-linejoin:round;stroke-miterlimit:2;"><path d="M113.781,71.797c-0,-0 -22.976,24.09 -29.136,38.815c-7.937,18.975 -7.844,37.499 -9.643,60.571c-1.418,18.19 13.285,47.638 3.43,55.796c-9.856,8.158 -51.662,-9.333 -60.882,-3.673c-9.22,5.659 -1.313,33.882 3.447,39.744c4.761,5.863 17.387,-1.577 25.118,-4.57c7.731,-2.993 14.894,-8.552 22.892,-11.042c8.523,-2.654 18.902,-2.627 28.249,-4.881c9.209,-2.222 16.857,-9.478 26.208,-10.991c11.32,-1.832 31.394,-1.757 42.102,0.263c8.384,1.581 35.308,12.876 39.488,13.956c1.995,0.516 4.127,-4.327 2.536,-5.636c-3.71,-3.053 -32.595,-12.928 -41.742,-14.52c-11.601,-2.02 -33.835,-1.531 -45.202,0.301c-8.428,1.358 -15.096,8.408 -23.39,10.427c-8.877,2.16 -19.665,2.254 -28.249,4.881c-8.081,2.472 -16.467,7.693 -23.255,10.878c-6.03,2.829 -15.37,9.479 -19.096,5.889c-3.726,-3.591 -11.726,-23.81 -3.26,-27.433c9.09,-3.89 50.089,11.349 59.91,1.98c9.821,-9.369 -4.423,-41.34 -2.667,-61.369c2.066,-23.579 3.959,-40.656 10.488,-58.035c4.247,-11.304 23.75,-33.967 23.75,-33.967l-1.096,-7.384Z" style="fill:#d4d4d4;"/><clipPath id="_clip1"><path d="M113.781,71.797c-0,-0 -22.976,24.09 -29.136,38.815c-7.937,18.975 -7.844,37.499 -9.643,60.571c-1.418,18.19 13.285,47.638 3.43,55.796c-9.856,8.158 -51.662,-9.333 -60.882,-3.673c-9.22,5.659 -1.313,33.882 3.447,39.744c4.761,5.863 17.387,-1.577 25.118,-4.57c7.731,-2.993 14.894,-8.552 22.892,-11.042c8.523,-2.654 18.902,-2.627 28.249,-4.881c9.209,-2.222 16.857,-9.478 26.208,-10.991c11.32,-1.832 31.394,-1.757 42.102,0.263c8.384,1.581 35.308,12.876 39.488,13.956c1.995,0.516 4.127,-4.327 2.536,-5.636c-3.71,-3.053 -32.595,-12.928 -41.742,-14.52c-11.601,-2.02 -33.835,-1.531 -45.202,0.301c-8.428,1.358 -15.096,8.408 -23.39,10.427c-8.877,2.16 -19.665,2.254 -28.249,4.881c-8.081,2.472 -16.467,7.693 -23.255,10.878c-6.03,2.829 -15.37,9.479 -19.096,5.889c-3.726,-3.591 -11.726,-23.81 -3.26,-27.433c9.09,-3.89 50.089,11.349 59.91,1.98c9.821,-9.369 -4.423,-41.34 -2.667,-61.369c2.066,-23.579 3.959,-40.656 10.488,-58.035c4.247,-11.304 23.75,-33.967 23.75,-33.967l-1.096,-7.384Z"/></clipPath><g clip-path="url(#_clip1)"><path d="M111.846,81.125c-5.335,2.429 -5.96,6.963 -13.378,15.523c-4.738,5.468 -7.216,9.358 -10.926,17.926c-3.491,8.061 -4.037,12.759 -5.295,23.068c-1.245,10.205 -2.057,18.8 -2.82,26.429c-0.505,5.048 -0.135,11.117 0.298,16.172c0.557,6.494 2.825,16.864 3.712,23.751c0.75,5.831 2.391,12.947 1.608,17.565c-0.666,3.926 -2.648,8.578 -6.309,10.144c-4,1.711 -11.833,0.806 -17.69,0.124c-6.907,-0.804 -17.05,-4.185 -23.751,-4.948c-5.45,-0.621 -13.112,-1.361 -16.452,0.371c-3.15,1.633 -3.694,6.474 -3.588,10.02c0.144,4.804 3.216,14.741 4.453,18.803c0.613,2.011 1.114,4.721 2.969,5.566c1.856,0.846 5.586,0.392 8.165,-0.494c3.299,-1.134 7.696,-4.312 11.628,-6.309c5.195,-2.639 12.635,-7.338 19.545,-9.525c6.969,-2.206 16.143,-2.557 22.267,-3.712c4.856,-0.915 10.308,-1.649 14.473,-3.216c3.806,-1.432 6.709,-4.753 10.515,-6.185c4.494,-1.691 10.867,-3.168 16.452,-3.959c6.412,-0.907 15.649,-1.546 22.02,-1.484c5.436,0.053 11.38,0.598 16.205,1.856c4.501,1.173 8.927,3.752 12.741,5.69c3.493,1.775 7.84,6.994 10.144,5.938c2.304,-1.057 6.747,-9.303 3.68,-12.278c-4.128,-4.005 -18.478,-9.819 -28.452,-11.752c-9.973,-1.933 -21.596,-1.52 -31.389,0.155c-9.563,1.636 -18.891,6.572 -27.37,9.896c-7.933,3.111 -15.434,7.316 -23.504,10.051c-10.798,3.66 -31.982,10.902 -41.286,11.907c-5.195,0.561 -13.349,-4.021 -14.535,-5.876c-1.185,-1.856 4.423,-4.817 7.422,-5.258c5.619,-0.824 18.946,0.387 26.287,0.31c5.926,-0.063 13.586,-0.071 17.761,-0.774c2.65,-0.446 5.282,-1.659 7.29,-3.445c2.079,-1.849 4.536,-4.638 5.183,-7.649c0.804,-3.741 0.128,-9.889 -0.36,-14.8c-0.74,-7.446 -3.946,-19.825 -4.081,-29.875c-0.139,-10.34 2.294,-22.215 3.247,-32.163c0.879,-9.17 0.439,-10.162 1.919,-19.254c1.598,-9.819 2.65,-16.399 8.732,-25.187c6.082,-8.788 7.875,-11.388 12.715,-15.525c0.887,-0.759 0.817,-8.081 -0.245,-7.597Z" style="fill:#cbcbcb;"/></g><g><path d="M414.017,77.322c-0,0 -6.878,2.906 -7.965,6.06c-1.472,4.271 -6.643,16.526 -0.866,19.566c15.468,8.138 76.184,27.472 93.672,29.261c7.188,0.736 9.812,-14.284 11.254,-18.526c0.794,-2.335 -2.597,-6.926 -2.597,-6.926l-93.498,-29.435Z" style="fill:#742323;"/><clipPath id="_clip2"><path d="M414.017,77.322c-0,0 -6.878,2.906 -7.965,6.06c-1.472,4.271 -6.643,16.526 -0.866,19.566c15.468,8.138 76.184,27.472 93.672,29.261c7.188,0.736 9.812,-14.284 11.254,-18.526c0.794,-2.335 -2.597,-6.926 -2.597,-6.926l-93.498,-29.435Z"/></clipPath><g clip-path="url(#_clip2)"><path d="M399.964,100.599c16.248,-15.579 33.557,-12.591 53.992,-7.881l-45.237,-22.08l-14.638,20.111l5.883,9.85Z" style="fill:#852828;"/><path d="M481.586,97.348c-5.798,17.504 -29.843,17.745 -64,12.803l83.492,28.295l25.363,-25.833l-44.855,-15.265Z" style="fill:#651e1e;"/></g><path d="M207.296,78.898c0,-0 6.769,3.152 7.741,6.343c1.317,4.322 6.043,16.755 0.159,19.584c-15.751,7.575 -77.125,24.707 -94.666,25.864c-7.21,0.475 -9.772,-14.513 -10.579,-18.921c-0.627,-3.428 1.204,-6.827 1.204,-6.827l96.141,-26.043Z" style="fill:#742323;"/><clipPath id="_clip3"><path d="M207.296,78.898c0,-0 6.769,3.152 7.741,6.343c1.317,4.322 6.043,16.755 0.159,19.584c-15.751,7.575 -77.125,24.707 -94.666,25.864c-7.21,0.475 -9.772,-14.513 -10.579,-18.921c-0.627,-3.428 1.204,-6.827 1.204,-6.827l96.141,-26.043Z"/></clipPath><g clip-path="url(#_clip3)"><path d="M191.024,83.96c14.588,23.627 -32.91,35.724 -68.136,50.1l111.723,-30.561l-13.778,-35.32l-29.809,15.781Z" style="fill:#651e1e;"/><path d="M108.037,106.006l45.898,-10.603c-35.458,11.201 -42.214,23.538 -31.704,39.845l-16.246,-10.26l2.052,-18.982Z" style="fill:#852828;"/></g><path d="M204.268,73.711c5.7,-2.592 -0.314,-14.62 4.862,-18.145c6.822,-4.648 23.177,-8.908 35.612,-9.606c17.64,-0.99 48.463,3.683 69.766,3.799c19.378,0.106 41.05,-3.992 58.053,-3.1c14.902,0.782 33.144,2.94 41.175,7.59c5.741,3.323 -1.675,16.419 4.228,19.445c14.936,7.656 75.166,28.467 89.491,27.763c10.229,-0.503 6.371,-23.767 -0.751,-31.126c-12.729,-13.151 -43.446,-34.709 -76.935,-48.189c-41.982,-16.9 -79.847,-16.639 -118.079,-17.191c-37.389,-0.54 -73.267,1.087 -111.116,12.677c-27.246,8.343 -63.664,22.247 -78.403,35.724c-11.675,10.676 -23.839,42.847 -10.233,46.262c13.607,3.416 76.208,-18.57 92.33,-25.903Z" style="fill:#c53c3c;"/><clipPath id="_clip4"><path d="M204.268,73.711c5.7,-2.592 -0.314,-14.62 4.862,-18.145c6.822,-4.648 23.177,-8.908 35.612,-9.606c17.64,-0.99 48.463,3.683 69.766,3.799c19.378,0.106 41.05,-3.992 58.053,-3.1c14.902,0.782 33.144,2.94 41.175,7.59c5.741,3.323 -1.675,16.419 4.228,19.445c14.936,7.656 75.166,28.467 89.491,27.763c10.229,-0.503 6.371,-23.767 -0.751,-31.126c-12.729,-13.151 -43.446,-34.709 -76.935,-48.189c-41.982,-16.9 -79.847,-16.639 -118.079,-17.191c-37.389,-0.54 -73.267,1.087 -111.116,12.677c-27.246,8.343 -63.664,22.247 -78.403,35.724c-11.675,10.676 -23.839,42.847 -10.233,46.262c13.607,3.416 76.208,-18.57 92.33,-25.903Z"/></clipPath><g clip-path="url(#_clip4)"><path d="M107.656,101.971l26.303,-6.576c-0,0 -2.975,-19.644 15.343,-37.575c22.689,-22.209 45.864,-35.834 148.107,-54.796c9.796,-1.817 -179.733,4.07 -179.733,4.07l-34.13,80.473l24.11,14.404Z" style="fill:#d16464;"/><path d="M545.737,67.472l-5.578,45.501l-134.448,-41.266c0,0 -14.269,-12.844 -23.238,-14.009c-26.041,-3.383 -105.886,-6.589 -133.01,-6.287c-10.27,0.114 -22.977,4.418 -29.729,8.096c-5.167,2.815 -10.784,13.973 -10.784,13.973c-0,0 -18.03,5.492 -19.429,2.121c-1.399,-3.37 4.861,-16.787 11.036,-22.344c10.154,-9.138 29.272,-12.116 41.512,-13.285c13.776,-1.316 30.898,1.612 41.723,2.638c15.657,1.484 29.682,2.771 50.966,0.869c20.899,-1.867 43.739,-2.196 64.744,0.505c6.883,0.885 16.567,4.908 19.535,7.196c2.798,2.156 -2.664,13.93 -1.65,12.703c1.014,-1.228 13.912,-6.622 6.886,-19.882c-5.153,-9.726 -25.935,-32.121 -75.805,-40.524l130.045,8.22l67.224,55.775Z" style="fill:#b33535;"/></g><path d="M414.316,79.194c-2.832,-1.214 -0.476,-9.52 2.54,-8.888c15.987,3.347 78.79,22.673 93.776,29.099c3.121,1.338 -0.139,10.277 -3.462,9.581c-15.988,-3.348 -77.867,-23.366 -92.854,-29.792Z" style="fill:#cecece;"/><clipPath id="_clip5"><path d="M414.316,79.194c-2.832,-1.214 -0.476,-9.52 2.54,-8.888c15.987,3.347 78.79,22.673 93.776,29.099c3.121,1.338 -0.139,10.277 -3.462,9.581c-15.988,-3.348 -77.867,-23.366 -92.854,-29.792Z"/></clipPath><g clip-path="url(#_clip5)"><path d="M478.889,86.477c5.066,10.943 -10.983,9.645 -31.469,6.059l70.688,23.343l2.583,-19.492l-41.802,-9.91Z" style="fill:#b8b8b8;"/></g><path d="M207.861,79.505c2.872,-1.116 0.803,-9.498 -2.233,-8.97c-16.093,2.796 -81.482,20.508 -96.68,26.415c-3.165,1.23 -0.214,10.275 3.131,9.694c16.093,-2.796 80.583,-21.232 95.782,-27.139Z" style="fill:#cecece;"/><clipPath id="_clip6"><path d="M207.861,79.505c2.872,-1.116 0.803,-9.498 -2.233,-8.97c-16.093,2.796 -81.482,20.508 -96.68,26.415c-3.165,1.23 -0.214,10.275 3.131,9.694c16.093,-2.796 80.583,-21.232 95.782,-27.139Z"/></clipPath><g clip-path="url(#_clip6)"><path d="M111.82,107.995c3.159,-1.831 0.745,-6.015 4.181,-8.856c5.288,-4.373 44.442,-11.105 52.315,-20.795c1.666,-2.051 -57.003,10.306 -67.199,15.322c-4.772,2.348 2.747,12.145 4.443,14.425c0.856,1.15 5.02,0.623 6.26,-0.096Z" style="fill:#dfdfdf;"/><path d="M188.765,74.08c9.013,7.755 -17.532,12.007 -32.915,24.038l56.774,-17.101l-2.394,-12.655l-21.465,5.718Z" style="fill:#b8b8b8;"/></g></g><rect x="0" y="0" width="632.837" height="270.559" style="fill:none;"/></svg>