<?xml version="1.0" encoding="UTF-8" standalone="no"?><!DOCTYPE svg PUBLIC "-//W3C//DTD SVG 1.1//EN" "http://www.w3.org/Graphics/SVG/1.1/DTD/svg11.dtd"><svg width="100%" height="100%" viewBox="0 0 500 259" version="1.1" xmlns="http://www.w3.org/2000/svg" xmlns:xlink="http://www.w3.org/1999/xlink" xml:space="preserve" xmlns:serif="http://www.serif.com/" style="fill-rule:evenodd;clip-rule:evenodd;stroke-linejoin:round;stroke-miterlimit:2;"><path d="M100.493,65.198c-0,0 -22.976,24.09 -29.136,38.815c-7.937,18.976 -7.844,37.499 -9.643,60.571c-1.418,18.19 13.285,47.639 3.43,55.797c-9.856,8.158 -51.662,-9.334 -60.882,-3.674c-9.22,5.659 -1.313,33.882 3.447,39.744c4.761,5.863 17.387,-1.577 25.118,-4.569c7.731,-2.993 14.894,-8.553 22.892,-11.043c8.523,-2.654 18.902,-2.626 28.249,-4.881c9.209,-2.221 16.857,-9.477 26.208,-10.991c11.32,-1.831 31.394,-1.757 42.102,0.263c8.384,1.581 35.308,12.876 39.488,13.957c1.995,0.515 4.127,-4.328 2.536,-5.636c-3.71,-3.053 -32.595,-12.928 -41.742,-14.521c-11.601,-2.019 -33.835,-1.531 -45.202,0.301c-8.428,1.358 -15.096,8.408 -23.39,10.427c-8.877,2.161 -19.665,2.255 -28.249,4.881c-8.081,2.473 -16.467,7.693 -23.255,10.878c-6.03,2.83 -15.37,9.48 -19.096,5.889c-3.726,-3.591 -11.726,-23.81 -3.26,-27.433c9.09,-3.89 50.089,11.35 59.91,1.981c9.821,-9.369 -4.423,-41.341 -2.667,-61.37c2.066,-23.578 3.959,-40.656 10.488,-58.034c4.247,-11.305 23.75,-33.968 23.75,-33.968l-1.096,-7.384Z" style="fill:#d4d4d4;"/><clipPath id="_clip1"><path d="M100.493,65.198c-0,0 -22.976,24.09 -29.136,38.815c-7.937,18.976 -7.844,37.499 -9.643,60.571c-1.418,18.19 13.285,47.639 3.43,55.797c-9.856,8.158 -51.662,-9.334 -60.882,-3.674c-9.22,5.659 -1.313,33.882 3.447,39.744c4.761,5.863 17.387,-1.577 25.118,-4.569c7.731,-2.993 14.894,-8.553 22.892,-11.043c8.523,-2.654 18.902,-2.626 28.249,-4.881c9.209,-2.221 16.857,-9.477 26.208,-10.991c11.32,-1.831 31.394,-1.757 42.102,0.263c8.384,1.581 35.308,12.876 39.488,13.957c1.995,0.515 4.127,-4.328 2.536,-5.636c-3.71,-3.053 -32.595,-12.928 -41.742,-14.521c-11.601,-2.019 -33.835,-1.531 -45.202,0.301c-8.428,1.358 -15.096,8.408 -23.39,10.427c-8.877,2.161 -19.665,2.255 -28.249,4.881c-8.081,2.473 -16.467,7.693 -23.255,10.878c-6.03,2.83 -15.37,9.48 -19.096,5.889c-3.726,-3.591 -11.726,-23.81 -3.26,-27.433c9.09,-3.89 50.089,11.35 59.91,1.981c9.821,-9.369 -4.423,-41.341 -2.667,-61.37c2.066,-23.578 3.959,-40.656 10.488,-58.034c4.247,-11.305 23.75,-33.968 23.75,-33.968l-1.096,-7.384Z"/></clipPath><g clip-path="url(#_clip1)"><path d="M98.558,74.526c-5.335,2.43 -5.96,6.963 -13.378,15.523c-4.738,5.469 -7.216,9.358 -10.926,17.927c-3.491,8.061 -4.037,12.758 -5.295,23.067c-1.245,10.205 -2.057,18.801 -2.82,26.429c-0.505,5.048 -0.135,11.117 0.298,16.172c0.557,6.494 2.825,16.865 3.712,23.751c0.75,5.832 2.391,12.948 1.608,17.566c-0.666,3.926 -2.648,8.577 -6.309,10.144c-4,1.711 -11.833,0.805 -17.69,0.123c-6.907,-0.804 -17.05,-4.185 -23.751,-4.948c-5.45,-0.62 -13.112,-1.361 -16.452,0.371c-3.15,1.633 -3.694,6.474 -3.588,10.02c0.144,4.804 3.216,14.742 4.453,18.803c0.613,2.012 1.114,4.721 2.969,5.567c1.856,0.845 5.586,0.391 8.165,-0.495c3.299,-1.134 7.696,-4.312 11.628,-6.309c5.195,-2.639 12.635,-7.338 19.545,-9.525c6.969,-2.206 16.143,-2.557 22.267,-3.711c4.856,-0.916 10.308,-1.65 14.473,-3.216c3.806,-1.432 6.709,-4.754 10.515,-6.186c4.494,-1.69 10.867,-3.168 16.452,-3.958c6.412,-0.907 15.649,-1.546 22.02,-1.485c5.436,0.053 11.38,0.598 16.205,1.856c4.501,1.173 8.927,3.752 12.741,5.69c3.493,1.775 7.84,6.995 10.144,5.938c2.304,-1.057 6.747,-9.303 3.68,-12.278c-4.129,-4.004 -18.478,-9.818 -28.452,-11.751c-9.973,-1.933 -21.596,-1.521 -31.389,0.154c-9.563,1.636 -18.891,6.572 -27.37,9.897c-7.933,3.11 -15.434,7.316 -23.504,10.05c-10.798,3.66 -31.982,10.902 -41.286,11.907c-5.195,0.561 -13.349,-4.02 -14.535,-5.876c-1.185,-1.856 4.423,-4.817 7.422,-5.257c5.619,-0.825 18.946,0.386 26.287,0.309c5.926,-0.063 13.585,-0.07 17.761,-0.773c2.65,-0.447 5.282,-1.659 7.29,-3.446c2.079,-1.849 4.536,-4.637 5.183,-7.649c0.804,-3.741 0.128,-9.889 -0.36,-14.8c-0.74,-7.445 -3.946,-19.825 -4.081,-29.875c-0.139,-10.34 2.294,-22.215 3.247,-32.163c0.879,-9.169 0.439,-10.162 1.919,-19.254c1.598,-9.819 2.65,-16.399 8.732,-25.187c6.082,-8.788 7.875,-11.388 12.715,-15.525c0.887,-0.758 0.817,-8.081 -0.245,-7.597Z" style="fill:#cbcbcb;"/></g><g><path d="M400.057,73.522c0,-0 -6.904,2.843 -8.019,5.987c-1.511,4.257 -6.793,16.465 -1.044,19.557c15.393,8.278 75.931,28.164 93.402,30.112c7.181,0.801 9.941,-14.195 11.422,-18.424c0.816,-2.327 -2.534,-6.949 -2.534,-6.949l-93.227,-30.283Z" style="fill:#742323;"/><clipPath id="_clip2"><path d="M400.057,73.522c0,-0 -6.904,2.843 -8.019,5.987c-1.511,4.257 -6.793,16.465 -1.044,19.557c15.393,8.278 75.931,28.164 93.402,30.112c7.181,0.801 9.941,-14.195 11.422,-18.424c0.816,-2.327 -2.534,-6.949 -2.534,-6.949l-93.227,-30.283Z"/></clipPath><g clip-path="url(#_clip2)"><path d="M385.793,96.669c16.389,-15.43 33.671,-12.285 54.062,-7.389l-45.034,-22.49l-14.821,19.976l5.793,9.903Z" style="fill:#852828;"/><path d="M467.441,94.161c-5.957,17.451 -30.003,17.473 -64.113,12.221l83.231,29.052l25.597,-25.601l-44.715,-15.672Z" style="fill:#651e1e;"/></g><path d="M193.331,73.218c-0,-0 6.739,3.213 7.683,6.413c1.277,4.333 5.89,16.809 -0.019,19.585c-15.819,7.431 -77.347,24.004 -94.898,25.002c-7.214,0.41 -9.64,-14.601 -10.406,-19.016c-0.596,-3.434 1.266,-6.817 1.266,-6.817l96.374,-25.167Z" style="fill:#742323;"/><clipPath id="_clip3"><path d="M193.331,73.218c-0,-0 6.739,3.213 7.683,6.413c1.277,4.333 5.89,16.809 -0.019,19.585c-15.819,7.431 -77.347,24.004 -94.898,25.002c-7.214,0.41 -9.64,-14.601 -10.406,-19.016c-0.596,-3.434 1.266,-6.817 1.266,-6.817l96.374,-25.167Z"/></clipPath><g clip-path="url(#_clip3)"><path d="M177.013,78.132c14.373,23.758 -33.233,35.423 -68.588,49.478l111.996,-29.544l-13.456,-35.444l-29.952,15.51Z" style="fill:#651e1e;"/><path d="M93.829,99.422l45.993,-10.184c-35.558,10.877 -42.427,23.152 -32.066,39.554l-16.151,-10.407l2.224,-18.963Z" style="fill:#852828;"/></g><path d="M190.35,68.004c5.724,-2.541 -0.181,-14.622 5.026,-18.101c6.864,-4.585 23.258,-8.696 35.699,-9.281c17.648,-0.83 48.427,4.123 69.728,4.433c19.376,0.282 41.085,-3.619 58.079,-2.572c14.894,0.918 33.116,3.241 41.105,7.964c5.71,3.375 -1.825,16.403 4.05,19.482c14.866,7.792 74.904,29.15 89.235,28.576c10.233,-0.41 6.587,-23.708 -0.468,-31.131c-12.609,-13.267 -43.129,-35.103 -76.494,-48.888c-41.826,-17.28 -79.692,-17.364 -117.918,-18.263c-37.382,-0.88 -73.273,0.421 -111.226,11.666c-27.32,8.095 -63.863,21.667 -78.725,35.01c-11.771,10.569 -24.227,42.628 -10.652,46.167c13.574,3.539 76.373,-17.876 92.561,-25.062Z" style="fill:#c53c3c;"/><clipPath id="_clip4"><path d="M190.35,68.004c5.724,-2.541 -0.181,-14.622 5.026,-18.101c6.864,-4.585 23.258,-8.696 35.699,-9.281c17.648,-0.83 48.427,4.123 69.728,4.433c19.376,0.282 41.085,-3.619 58.079,-2.572c14.894,0.918 33.116,3.241 41.105,7.964c5.71,3.375 -1.825,16.403 4.05,19.482c14.866,7.792 74.904,29.15 89.235,28.576c10.233,-0.41 6.587,-23.708 -0.468,-31.131c-12.609,-13.267 -43.129,-35.103 -76.494,-48.888c-41.826,-17.28 -79.692,-17.364 -117.918,-18.263c-37.382,-0.88 -73.273,0.421 -111.226,11.666c-27.32,8.095 -63.863,21.667 -78.725,35.01c-11.771,10.569 -24.227,42.628 -10.652,46.167c13.574,3.539 76.373,-17.876 92.561,-25.062Z"/></clipPath><g clip-path="url(#_clip4)"><path d="M93.485,95.384l26.361,-6.337c0,0 -2.796,-19.67 15.684,-37.433c22.89,-22.002 46.189,-35.416 148.6,-53.448c9.812,-1.728 -179.763,2.436 -179.763,2.436l-34.86,80.159l23.978,14.623Z" style="fill:#d16464;"/><path d="M531.861,64.87l-5.991,45.448l-134.067,-42.486c-0,-0 -14.151,-12.974 -23.11,-14.221c-26.009,-3.619 -105.822,-7.551 -132.947,-7.496c-10.27,0.021 -23.016,4.209 -29.802,7.826c-5.192,2.767 -10.911,13.875 -10.911,13.875c0,-0 -18.079,5.327 -19.447,1.943c-1.368,-3.383 5.014,-16.742 11.239,-22.242c10.236,-9.045 29.381,-11.85 41.631,-12.907c13.788,-1.191 30.882,1.892 41.698,3.017c15.643,1.626 29.655,3.041 50.956,1.333c20.915,-1.678 43.757,-1.799 64.736,1.093c6.875,0.947 16.522,5.058 19.469,7.373c2.779,2.182 -2.791,13.906 -1.766,12.687c1.025,-1.218 13.972,-6.495 7.067,-19.818c-5.065,-9.772 -25.641,-32.356 -75.434,-41.211l129.965,9.401l66.714,56.385Z" style="fill:#b33535;"/></g><path d="M400.34,75.396c-2.821,-1.24 -0.39,-9.524 2.62,-8.865c15.956,3.493 78.581,23.389 93.508,29.951c3.109,1.366 -0.232,10.275 -3.55,9.549c-15.956,-3.493 -77.65,-24.073 -92.578,-30.635Z" style="fill:#cecece;"/><clipPath id="_clip5"><path d="M400.34,75.396c-2.821,-1.24 -0.39,-9.524 2.62,-8.865c15.956,3.493 78.581,23.389 93.508,29.951c3.109,1.366 -0.232,10.275 -3.55,9.549c-15.956,-3.493 -77.65,-24.073 -92.578,-30.635Z"/></clipPath><g clip-path="url(#_clip5)"><path d="M464.844,83.266c4.965,10.989 -11.071,9.544 -31.523,5.772l70.473,23.986l2.76,-19.468l-41.71,-10.29Z" style="fill:#b8b8b8;"/></g><path d="M193.89,73.83c2.882,-1.09 0.889,-9.49 -2.151,-8.99c-16.118,2.65 -81.665,19.766 -96.917,25.535c-3.176,1.201 -0.307,10.273 3.044,9.722c16.117,-2.65 80.772,-20.499 96.024,-26.267Z" style="fill:#cecece;"/><clipPath id="_clip6"><path d="M193.89,73.83c2.882,-1.09 0.889,-9.49 -2.151,-8.99c-16.118,2.65 -81.665,19.766 -96.917,25.535c-3.176,1.201 -0.307,10.273 3.044,9.722c16.117,-2.65 80.772,-20.499 96.024,-26.267Z"/></clipPath><g clip-path="url(#_clip6)"><path d="M97.595,101.445c3.175,-1.801 0.799,-6.007 4.261,-8.817c5.327,-4.325 44.541,-10.701 52.501,-20.318c1.685,-2.037 -57.094,9.787 -67.335,14.71c-4.793,2.304 2.636,12.169 4.312,14.465c0.845,1.158 5.014,0.668 6.261,-0.04Z" style="fill:#dfdfdf;"/><path d="M174.844,68.232c8.942,7.837 -17.64,11.846 -33.132,23.737l56.927,-16.584l-2.279,-12.676l-21.516,5.523Z" style="fill:#b8b8b8;"/></g></g></svg>