<?xml version="1.0" encoding="UTF-8" standalone="no"?><!DOCTYPE svg PUBLIC "-//W3C//DTD SVG 1.1//EN" "http://www.w3.org/Graphics/SVG/1.1/DTD/svg11.dtd"><svg width="100%" height="100%" viewBox="0 0 633 271" version="1.1" xmlns="http://www.w3.org/2000/svg" xmlns:xlink="http://www.w3.org/1999/xlink" xml:space="preserve" xmlns:serif="http://www.serif.com/" style="fill-rule:evenodd;clip-rule:evenodd;stroke-linejoin:round;stroke-miterlimit:2;"><g><g><path d="M195.868,190.438c5.811,-25.671 43.845,-31.261 45.246,-73.365l149.486,1.413c6.252,44.864 40.985,54.08 50.444,75.897l-245.176,-3.945Z" style="fill:#c53c3c;"/><clipPath id="_clip1"><path d="M195.868,190.438c5.811,-25.671 43.845,-31.261 45.246,-73.365l149.486,1.413c6.252,44.864 40.985,54.08 50.444,75.897l-245.176,-3.945Z"/></clipPath><g clip-path="url(#_clip1)"><path d="M238.647,114.698l-59.027,75.87l10.33,12.105c14.149,-25.276 67.012,-35.846 68.336,-61.122l-19.639,-26.853Z" style="fill:#d16464;"/><path d="M375.085,139.46c5.549,28.585 24.984,32.714 15.656,53.058l73.063,1.739l-80.021,-84.08l-8.698,29.283Z" style="fill:#b33535;"/><path d="M442.363,256.307c-46.399,7.888 -216.522,0.478 -254.589,-0.564c-10.573,-0.289 -3.462,-74.022 7.45,-75.128c39.849,-4.035 223.556,-3.95 245.325,3.382c11.666,3.93 13.489,70.325 1.814,72.31Z" style="fill:#b33535;"/><path d="M322.925,172.933c-54.786,0.138 -78.381,-29.114 -77.527,-45.515c0.955,-18.328 28.915,-45.881 75.308,-45.528c38.892,0.295 79.81,16.682 75.869,50.484c-2.187,18.759 -30.255,40.449 -73.65,40.559Z" style="fill:#b33535;"/></g><path d="M442.363,262.105c-46.399,7.888 -216.522,0.478 -254.589,-0.563c-10.573,-0.29 -3.462,-74.023 7.45,-75.128c39.849,-4.035 223.556,-3.951 245.325,3.382c11.666,3.929 13.489,70.324 1.814,72.309Z" style="fill:#742323;"/><clipPath id="_clip2"><path d="M442.363,262.105c-46.399,7.888 -216.522,0.478 -254.589,-0.563c-10.573,-0.29 -3.462,-74.023 7.45,-75.128c39.849,-4.035 223.556,-3.951 245.325,3.382c11.666,3.929 13.489,70.324 1.814,72.309Z"/></clipPath><g clip-path="url(#_clip2)"><path d="M420.1,183.528c0,0 10.493,40.355 -15.108,55.579c-25.428,15.122 -98.513,19.305 -114.838,35.227l201.573,-6.263l-21.527,-101.765l-50.1,17.222Z" style="fill:#651e1e;"/><path d="M186.888,183.494l139.477,-2.138c0,0 -75.955,10.051 -106.879,24.315c-26.659,12.298 -25.89,49.515 -41.416,51.837l-4.542,-72.144l13.36,-1.87Z" style="fill:#852828;"/></g><path d="M284.821,211.193c9.499,-3.727 54.782,-3.655 64.209,0c7.218,2.799 -0.441,19.104 -7.648,21.932c-9.499,3.727 -39.919,4.088 -49.346,0.433c-7.303,-2.832 -14.506,-19.503 -7.215,-22.365Z" style="fill:#cecece;"/><clipPath id="_clip3"><path d="M284.821,211.193c9.499,-3.727 54.782,-3.655 64.209,0c7.218,2.799 -0.441,19.104 -7.648,21.932c-9.499,3.727 -39.919,4.088 -49.346,0.433c-7.303,-2.832 -14.506,-19.503 -7.215,-22.365Z"/></clipPath><g clip-path="url(#_clip3)"><path d="M347.57,210.728c0.554,0.148 1.042,0.303 1.46,0.465c7.218,2.799 -0.441,19.104 -7.648,21.932c-9.499,3.727 -39.919,4.088 -49.346,0.433c-2.063,-0.8 -4.117,-2.703 -5.839,-5.088c0.517,0.335 1.04,0.61 1.564,0.813c9.426,3.655 39.847,3.294 49.346,-0.433c5.529,-2.17 11.325,-12.272 10.463,-18.122Z" style="fill:#b8b8b8;"/><path d="M282.455,227.486c2.266,-13.279 38.938,-14.47 61.816,-18.626l-30.369,-5.081l-38.085,4.418l6.638,19.289Z" style="fill:#e3e3e3;"/></g></g><path d="M373.797,89.041c10.174,-1.433 16.598,-13.184 21.211,-22.364c5.098,-10.149 11.543,-31.623 9.378,-38.525c-2.164,-6.902 -16.306,-7.336 -22.364,-2.886c-6.614,4.858 -6.716,26.118 -17.315,32.032c-10.99,6.132 -32.346,5.238 -48.625,4.761c-16.647,-0.487 -40.22,-1.563 -51.258,-7.683c-9.524,-5.281 -8.597,-24.679 -14.97,-29.038c-6.373,-4.359 -21.282,-4.509 -23.266,2.886c-1.984,7.395 5.41,31.202 11.362,41.483c5.284,9.126 13.869,19.022 24.349,20.2c12.565,1.413 33.585,-11.588 51.042,-11.723c18.583,-0.145 46.845,12.775 60.456,10.857Z" style="fill:#742323;"/><clipPath id="_clip4"><path d="M373.797,89.041c10.174,-1.433 16.598,-13.184 21.211,-22.364c5.098,-10.149 11.543,-31.623 9.378,-38.525c-2.164,-6.902 -16.306,-7.336 -22.364,-2.886c-6.614,4.858 -6.716,26.118 -17.315,32.032c-10.99,6.132 -32.346,5.238 -48.625,4.761c-16.647,-0.487 -40.22,-1.563 -51.258,-7.683c-9.524,-5.281 -8.597,-24.679 -14.97,-29.038c-6.373,-4.359 -21.282,-4.509 -23.266,2.886c-1.984,7.395 5.41,31.202 11.362,41.483c5.284,9.126 13.869,19.022 24.349,20.2c12.565,1.413 33.585,-11.588 51.042,-11.723c18.583,-0.145 46.845,12.775 60.456,10.857Z"/></clipPath><g clip-path="url(#_clip4)"><path d="M255.501,26.921c-2.052,-0.342 -18.159,0.233 -21,5.609c-3.99,7.553 6.498,45.317 6.498,45.317c-8.658,1.388 -18.68,-20.791 -29.892,-63.546l52.5,6.84c-0,0 -6.054,6.122 -8.106,5.78Z" style="fill:#852828;"/><path d="M395.902,20.203c7.13,18.861 -12.685,63.849 -50.496,53.544l44.62,30.53l24.1,-73.896l-18.224,-10.178Z" style="fill:#651e1e;"/><path d="M394.141,21.463c-10.405,4.67 -11.779,15.453 -20.42,33.916c-2.889,6.172 -23.317,9.1 -38.071,6.727l41.386,-43.401l17.105,2.758Z" style="fill:#852828;"/><path d="M254.105,32.053c0.746,13.313 -4.12,27.499 8.105,32.982c5.775,2.59 21.664,-2.374 46.666,-3.246l-54.771,-29.736Z" style="fill:#651e1e;"/><path d="M246.75,85.643c-3.15,-5.041 -6.04,-9.324 -1.002,-9.878c7.299,-0.802 21.479,9.136 44.796,5.066l-35.719,10.902l-8.075,-6.09Z" style="fill:#651e1e;"/></g><g><path d="M317.32,167.859c-55.179,0.138 -78.943,-29.114 -78.082,-45.515c0.961,-18.328 29.121,-45.88 75.848,-45.528c39.171,0.296 80.383,16.682 76.413,50.485c-2.202,18.758 -30.471,40.448 -74.179,40.558Z" style="fill:#ededed;"/><clipPath id="_clip5"><path d="M317.32,167.859c-55.179,0.138 -78.943,-29.114 -78.082,-45.515c0.961,-18.328 29.121,-45.88 75.848,-45.528c39.171,0.296 80.383,16.682 76.413,50.485c-2.202,18.758 -30.471,40.448 -74.179,40.558Z"/></clipPath><g clip-path="url(#_clip5)"><path d="M379.98,97.086c8.36,7.777 12.974,17.826 11.519,30.215c-2.202,18.758 -30.471,40.448 -74.179,40.558c-39.249,0.098 -62.603,-14.673 -72.508,-29.115c12.093,11.685 33.696,21.803 66.202,21.722c43.708,-0.11 71.977,-21.8 74.179,-40.559c1.03,-8.772 -0.982,-16.371 -5.213,-22.821Z" style="fill:#d9d9d9;"/></g><path d="M313.426,63.632c49.302,-0.137 70.535,28.807 69.766,45.034c-0.859,18.134 -26.019,45.395 -67.769,45.047c-34.999,-0.293 -71.821,-16.506 -68.275,-49.951c1.968,-18.56 27.226,-40.021 66.278,-40.13Z" style="fill:#bbb;"/><clipPath id="_clip6"><path d="M313.426,63.632c49.302,-0.137 70.535,28.807 69.766,45.034c-0.859,18.134 -26.019,45.395 -67.769,45.047c-34.999,-0.293 -71.821,-16.506 -68.275,-49.951c1.968,-18.56 27.226,-40.021 66.278,-40.13Z"/></clipPath><g clip-path="url(#_clip6)"><path d="M367.65,80.477c10.979,9.157 15.921,20.21 15.542,28.189c-0.859,18.134 -26.019,45.395 -67.769,45.047c-24.769,-0.207 -50.451,-8.388 -62.092,-25.008c13.323,10.639 33.753,15.923 53.598,16.089c41.749,0.349 66.91,-26.912 67.769,-45.047c0.261,-5.504 -2.009,-12.471 -7.048,-19.27Z" style="fill:#a6a6a6;"/><path d="M362.422,144.882c0.945,-6.88 -4.402,-13.761 -9.149,-18.89c7.228,1.276 14.194,3.865 20.692,8.79l-11.543,10.1Z" style="fill:#a6a6a6;"/></g><path d="M314.682,80.409c27.045,-0.073 38.693,15.272 38.271,23.875c-0.471,9.615 -14.273,24.068 -37.176,23.883c-19.199,-0.155 -39.398,-8.751 -37.452,-26.483c1.079,-9.84 14.935,-21.218 36.357,-21.275Z" style="fill:#d5d5d5;"/><path d="M314.317,81.854c25.166,-0.068 36.004,14.211 35.612,22.217c-0.439,8.946 -13.282,22.395 -34.593,22.223c-17.865,-0.144 -36.661,-8.143 -34.85,-24.643c1.004,-9.156 13.897,-19.744 33.831,-19.797Z" style="fill:#ededed;"/><clipPath id="_clip7"><path d="M314.317,81.854c25.166,-0.068 36.004,14.211 35.612,22.217c-0.439,8.946 -13.282,22.395 -34.593,22.223c-17.865,-0.144 -36.661,-8.143 -34.85,-24.643c1.004,-9.156 13.897,-19.744 33.831,-19.797Z"/></clipPath><g clip-path="url(#_clip7)"><path d="M282.39,122.949c-3.746,-38.725 29.609,-44.092 66.603,-31.706l-19.647,-15.05l-44.646,-1.247l-16.004,35.311l13.694,12.692Z" style="fill:#e3e3e3;"/></g><g><path d="M319.882,132.973c7.381,-0.384 12.22,4.445 12.134,9.293c-0.103,5.83 -4.565,9.543 -12.356,10.061c-6.608,0.438 -11.804,-5.637 -10.933,-10.829c0.83,-4.948 4.26,-8.167 11.155,-8.525Z" style="fill:#adadad;"/><path d="M346.003,127.978c7.228,2.272 10.192,8.547 8.414,13.084c-2.138,5.457 -7.725,7.364 -15.394,5.072c-6.505,-1.944 -9.376,-9.522 -6.723,-14.103c2.527,-4.365 6.949,-6.175 13.703,-4.053Z" style="fill:#adadad;"/><path d="M296.226,131.429c7.38,-0.369 12.22,4.276 12.134,8.939c-0.104,5.608 -4.566,9.18 -12.356,9.677c-6.608,0.422 -11.805,-5.422 -10.934,-10.416c0.83,-4.759 4.26,-7.856 11.156,-8.2Z" style="fill:#adadad;"/><path d="M275.873,121.778c7.225,-0.357 11.963,4.144 11.878,8.664c-0.101,5.436 -4.469,8.898 -12.095,9.38c-6.469,0.408 -11.556,-5.256 -10.703,-10.096c0.812,-4.613 4.17,-7.614 10.92,-7.948Z" style="fill:#adadad;"/><path d="M261.631,108.431c7.236,-1.49 12.677,1.906 13.256,6.091c0.696,5.034 -3.202,8.931 -10.824,10.6c-6.467,1.416 -12.43,-2.996 -12.281,-7.601c0.142,-4.389 3.088,-7.698 9.849,-9.09Z" style="fill:#adadad;"/><path d="M261.273,93.895c7.243,-1.442 12.588,1.351 13.071,4.932c0.581,4.307 -3.391,7.741 -11.024,9.345c-6.475,1.362 -12.318,-2.293 -12.066,-6.251c0.24,-3.771 3.251,-6.679 10.019,-8.026Z" style="fill:#adadad;"/><path d="M271.509,79.753c7.199,-1.418 12.479,1.174 12.93,4.549c0.542,4.059 -3.426,7.33 -11.012,8.905c-6.435,1.336 -12.204,-2.066 -11.922,-5.802c0.268,-3.56 3.278,-6.327 10.004,-7.652Z" style="fill:#adadad;"/><path d="M290.877,70.025c7.315,-0.546 12.246,2.338 12.288,5.435c0.05,3.725 -4.281,6.277 -12.001,6.925c-6.548,0.549 -11.865,-3.116 -11.136,-6.465c0.694,-3.191 4.013,-5.385 10.849,-5.895Z" style="fill:#adadad;"/><path d="M314.6,66.763c7.336,-0.118 12.089,3.049 11.95,6.143c-0.167,3.721 -4.64,6.016 -12.384,6.212c-6.569,0.167 -11.663,-3.803 -10.74,-7.103c0.879,-3.146 4.321,-5.142 11.174,-5.252Z" style="fill:#adadad;"/><path d="M338.191,69.623c7.421,-0.109 12.233,2.965 12.095,5.965c-0.167,3.609 -4.691,5.831 -12.526,6.015c-6.646,0.157 -11.803,-3.696 -10.872,-6.896c0.888,-3.049 4.369,-4.983 11.303,-5.084Z" style="fill:#adadad;"/><path d="M315.582,95.562c10.783,-0.03 15.426,6.433 15.258,10.056c-0.188,4.05 -5.691,10.137 -14.822,10.059c-7.654,-0.065 -15.708,-3.685 -14.932,-11.154c0.431,-4.144 5.955,-8.936 14.496,-8.961Z" style="fill:#a6a6a6;"/><path d="M314.814,95.073c10.194,-0.027 14.585,5.757 14.426,9c-0.178,3.624 -5.381,9.072 -14.013,9.002c-7.237,-0.058 -14.851,-3.298 -14.118,-9.982c0.407,-3.709 5.63,-7.998 13.705,-8.02Z" style="fill:#bbb;"/><path d="M318.838,131.581c7.381,-0.383 12.22,4.445 12.134,9.293c-0.103,5.83 -4.565,9.544 -12.355,10.061c-6.609,0.438 -11.805,-5.637 -10.934,-10.829c0.83,-4.948 4.26,-8.167 11.155,-8.525Z" style="fill:#d4d4d4;"/><path d="M344.959,126.587c7.228,2.271 10.192,8.547 8.414,13.083c-2.137,5.457 -7.725,7.364 -15.394,5.072c-6.505,-1.944 -9.376,-9.521 -6.723,-14.102c2.528,-4.366 6.95,-6.175 13.703,-4.053Z" style="fill:#d4d4d4;"/><path d="M295.182,130.037c7.38,-0.369 12.22,4.276 12.134,8.939c-0.103,5.608 -4.565,9.18 -12.356,9.678c-6.608,0.422 -11.804,-5.423 -10.933,-10.417c0.83,-4.759 4.259,-7.855 11.155,-8.2Z" style="fill:#d4d4d4;"/><path d="M274.829,120.387c7.225,-0.358 11.963,4.144 11.879,8.663c-0.101,5.436 -4.469,8.898 -12.096,9.38c-6.469,0.409 -11.556,-5.255 -10.703,-10.096c0.813,-4.613 4.17,-7.613 10.92,-7.947Z" style="fill:#d4d4d4;"/><path d="M260.587,107.039c7.237,-1.489 12.677,1.906 13.256,6.091c0.697,5.034 -3.201,8.932 -10.824,10.601c-6.466,1.416 -12.43,-2.997 -12.281,-7.602c0.142,-4.389 3.089,-7.698 9.849,-9.09Z" style="fill:#d4d4d4;"/><path d="M260.229,92.503c7.244,-1.442 12.588,1.351 13.071,4.932c0.581,4.307 -3.391,7.741 -11.024,9.346c-6.475,1.361 -12.318,-2.294 -12.066,-6.251c0.241,-3.772 3.251,-6.679 10.019,-8.027Z" style="fill:#d4d4d4;"/><path d="M270.465,78.361c7.199,-1.418 12.48,1.175 12.93,4.549c0.542,4.059 -3.426,7.331 -11.012,8.905c-6.435,1.336 -12.203,-2.065 -11.922,-5.801c0.269,-3.561 3.278,-6.328 10.004,-7.653Z" style="fill:#d4d4d4;"/><path d="M289.833,68.633c7.316,-0.546 12.246,2.338 12.288,5.435c0.05,3.725 -4.281,6.277 -12,6.925c-6.548,0.55 -11.865,-3.116 -11.137,-6.464c0.694,-3.192 4.014,-5.386 10.849,-5.896Z" style="fill:#d4d4d4;"/><path d="M313.557,65.371c7.335,-0.118 12.088,3.049 11.949,6.143c-0.167,3.722 -4.64,6.016 -12.384,6.213c-6.569,0.166 -11.663,-3.803 -10.74,-7.104c0.879,-3.145 4.321,-5.142 11.175,-5.252Z" style="fill:#d4d4d4;"/><path d="M337.147,68.231c7.421,-0.109 12.233,2.965 12.095,5.966c-0.166,3.608 -4.691,5.83 -12.525,6.015c-6.646,0.156 -11.803,-3.696 -10.872,-6.896c0.887,-3.05 4.368,-4.983 11.302,-5.085Z" style="fill:#d4d4d4;"/><path d="M314.026,150.17c-4.224,-1.759 -6.997,-6.161 -6.343,-10.064c0.83,-4.948 4.26,-8.167 11.155,-8.525c3.818,-0.198 6.956,0.998 9.084,2.87c-1.741,-0.743 -3.803,-1.134 -6.115,-1.014c-6.895,0.358 -10.325,3.577 -11.155,8.525c-0.484,2.886 0.907,6.046 3.374,8.208Z" style="fill:#e4e4e4;"/><path d="M336.959,144.38c-5.778,-2.39 -8.213,-9.406 -5.703,-13.74c2.528,-4.366 6.95,-6.175 13.703,-4.053c1.957,0.615 3.601,1.523 4.924,2.611c-0.613,-0.285 -1.265,-0.539 -1.955,-0.756c-6.753,-2.122 -11.175,-0.313 -13.703,4.053c-2.024,3.495 -0.833,8.734 2.734,11.885Z" style="fill:#e4e4e4;"/><path d="M290.212,147.853c-4.135,-1.733 -6.832,-5.909 -6.185,-9.616c0.83,-4.759 4.259,-7.855 11.155,-8.2c3.914,-0.195 7.113,1.019 9.242,2.898c-1.773,-0.758 -3.891,-1.161 -6.273,-1.042c-6.896,0.344 -10.325,3.44 -11.155,8.2c-0.474,2.717 0.848,5.686 3.216,7.76Z" style="fill:#e4e4e4;"/><path d="M269.959,137.652c-4.045,-1.681 -6.683,-5.726 -6.05,-9.318c0.813,-4.613 4.17,-7.613 10.92,-7.947c3.873,-0.192 7.031,1.012 9.115,2.867c-1.737,-0.736 -3.811,-1.127 -6.146,-1.012c-6.75,0.334 -10.108,3.335 -10.92,7.948c-0.459,2.607 0.805,5.454 3.081,7.462Z" style="fill:#e4e4e4;"/><path d="M256.189,123.136c-3.279,-1.362 -5.543,-4.147 -5.451,-7.007c0.142,-4.389 3.089,-7.698 9.849,-9.09c4.875,-1.003 8.934,0.21 11.242,2.388c-2.232,-0.895 -5.077,-1.19 -8.273,-0.532c-6.761,1.392 -9.707,4.701 -9.849,9.09c-0.061,1.876 0.893,3.72 2.482,5.151Z" style="fill:#e4e4e4;"/><path d="M254.9,106.208c-2.913,-1.167 -4.837,-3.371 -4.69,-5.678c0.241,-3.772 3.251,-6.679 10.019,-8.027c5.316,-1.058 9.609,0.165 11.709,2.306c-2.269,-0.863 -5.289,-1.137 -8.74,-0.45c-6.768,1.347 -9.778,4.255 -10.019,8.026c-0.087,1.378 0.563,2.718 1.721,3.823Z" style="fill:#e4e4e4;"/><path d="M264.904,91.27c-2.788,-1.095 -4.604,-3.121 -4.443,-5.256c0.269,-3.561 3.278,-6.328 10.004,-7.653c5.438,-1.071 9.781,0.146 11.775,2.261c-2.258,-0.836 -5.305,-1.095 -8.806,-0.405c-6.726,1.325 -9.735,4.092 -10.004,7.652c-0.092,1.221 0.462,2.406 1.474,3.401Z" style="fill:#e4e4e4;"/><path d="M283.405,80.023c-3.02,-1.244 -4.87,-3.429 -4.421,-5.494c0.694,-3.192 4.014,-5.386 10.849,-5.896c5.195,-0.388 9.187,0.954 11.08,2.874c-2.088,-0.827 -4.865,-1.261 -8.111,-1.018c-6.835,0.51 -10.155,2.704 -10.849,5.895c-0.271,1.247 0.295,2.537 1.452,3.639Z" style="fill:#e4e4e4;"/><path d="M307.002,76.605c-3.261,-1.388 -5.222,-3.827 -4.62,-5.982c0.879,-3.145 4.321,-5.142 11.175,-5.252c4.877,-0.078 8.614,1.296 10.529,3.135c-1.981,-0.824 -4.554,-1.328 -7.561,-1.279c-6.853,0.11 -10.295,2.106 -11.174,5.252c-0.385,1.375 0.275,2.866 1.651,4.126Z" style="fill:#e4e4e4;"/><path d="M330.344,79.044c-3.193,-1.359 -5.096,-3.678 -4.499,-5.728c0.887,-3.05 4.368,-4.983 11.302,-5.085c5.046,-0.074 8.885,1.323 10.783,3.169c-2.025,-0.841 -4.688,-1.359 -7.814,-1.314c-6.934,0.102 -10.415,2.036 -11.303,5.085c-0.374,1.287 0.236,2.679 1.531,3.873Z" style="fill:#e4e4e4;"/></g><path d="M363.253,140.983c0.945,-6.88 -4.401,-13.761 -9.148,-18.89c7.228,1.276 14.193,3.865 20.691,8.79l-11.543,10.1Z" style="fill:#ededed;"/></g></g><rect x="0" y="0" width="632.837" height="270.559" style="fill:none;"/></svg>