<?xml version="1.0" encoding="UTF-8" standalone="no"?>
<!DOCTYPE svg PUBLIC "-//W3C//DTD SVG 1.1//EN" "http://www.w3.org/Graphics/SVG/1.1/DTD/svg11.dtd">
<svg width="100%" height="100%" viewBox="0 0 2560 1440" version="1.1" xmlns="http://www.w3.org/2000/svg" xmlns:xlink="http://www.w3.org/1999/xlink" xml:space="preserve" xmlns:serif="http://www.serif.com/" style="fill-rule:evenodd;clip-rule:evenodd;stroke-linecap:round;stroke-linejoin:round;stroke-miterlimit:1.5;">
    <g transform="matrix(1,0,0,1,0,-1513.01)">
        <g id="_2" serif:id="2" transform="matrix(1,0,0,1,0,1513.01)">
            <rect x="0" y="0" width="2560" height="1440" style="fill:none;"/>
            <clipPath id="_clip1">
                <rect x="0" y="0" width="2560" height="1440"/>
            </clipPath>
            <g clip-path="url(#_clip1)">
                <g transform="matrix(1.33333,0,0,1.33333,3.41061e-13,-5.94677e-13)">
                    <rect x="0" y="0" width="1920" height="1080" style="fill:rgb(202,186,159);"/>
                </g>
                <g>
                    <g transform="matrix(1.33333,0,0,1.33333,3.41061e-13,-6.82121e-13)">
                        <rect x="0" y="0" width="1920" height="1080" style="fill:rgb(191,172,140);"/>
                    </g>
                    <g transform="matrix(1.07048,0,0,1.07751,-89.4702,-1687.07)">
                        <path d="M679.912,3006.32C557.987,2978.09 346.084,2909.16 254.617,2830.51C173.525,2760.77 142.161,2634.15 131.108,2534.37C120.054,2434.59 190.667,2334.44 188.295,2231.83C185.854,2126.3 101.76,1994.75 116.465,1901.2C130.999,1808.74 193.898,1711.7 276.529,1670.5C359.16,1629.3 500.744,1664.94 612.249,1653.98C737.479,1641.67 889.596,1598.71 1027.91,1596.65C1166.23,1594.58 1303.31,1637.33 1442.13,1641.6C1581.29,1645.88 1723.16,1614.31 1862.84,1622.34C2002.52,1630.36 2190.85,1643.29 2280.21,1689.77C2351.93,1727.07 2387.18,1821.23 2399.02,1901.2C2412.4,1991.54 2356.53,2120.94 2360.49,2231.83C2364.56,2345.9 2431.24,2479.58 2423.43,2585.65C2416,2686.43 2393.81,2806.75 2313.61,2868.22C2220.18,2939.82 2001.13,2991.73 1862.84,3015.28C1738.3,3036.49 1610.19,3011.72 1483.88,3009.5C1337.77,3006.93 1120.16,3000.4 986.167,2999.87C884.06,2999.46 779.388,3029.35 679.912,3006.32Z" style="fill:rgb(202,186,159);"/>
                    </g>
                </g>
                <g transform="matrix(2.49883,0,0,2.49883,-49070.9,-10235)">
                    <path d="M20153.9,4286.7C20363.3,4280.12 20380.8,4281.89 20382.9,4408.86C20385.4,4557.94 20355.7,4541.58 20165,4544.77C19956.5,4548.26 19914.9,4579.14 19916.6,4413.72C19918,4272.84 19927.4,4293.81 20153.9,4286.7Z" style="fill:rgb(191,172,140);"/>
                    <path d="M20153.9,4286.7C20363.3,4280.12 20380.8,4281.89 20382.9,4408.86C20385.4,4557.94 20355.7,4541.58 20165,4544.77C19956.5,4548.26 19914.9,4579.14 19916.6,4413.72C19918,4272.84 19927.4,4293.81 20153.9,4286.7ZM20154.6,4307.69C20228.1,4305.38 20277.4,4303.93 20310.5,4309.05C20327.2,4311.63 20338.8,4315.4 20346.4,4323.48C20352.5,4329.99 20355.6,4338.98 20357.7,4350.65C20360.6,4366.03 20361.5,4385.26 20361.9,4409.21C20362.4,4437.38 20361.7,4459.31 20358.8,4476.37C20356.5,4489.43 20353.3,4499.05 20346.9,4505.74C20339.2,4513.91 20327.5,4517.2 20311.4,4519.51C20279,4524.14 20232.1,4522.64 20164.6,4523.77C20090.2,4525.02 20037.3,4529.85 20000.1,4527.78C19980.7,4526.71 19966.5,4524.41 19956.7,4516.22C19949.3,4509.98 19945.2,4500.34 19942.3,4486.8C19938.4,4468.77 19937.3,4445.04 19937.6,4413.93C19937.9,4387.03 19938.4,4366.3 19940.8,4350.31C19942.6,4338.95 19944.9,4330.62 19950.5,4324.95C19957.7,4317.6 19969.3,4315.2 19986.4,4313.18C20021.1,4309.08 20073.9,4310.22 20154.6,4307.69Z" style="fill:rgb(191,172,140);"/>
                </g>
                <g transform="matrix(1,0,0,3.33085,-10.3551,-8299.46)">
                    <rect x="906.269" y="2757.28" width="170.775" height="195.732" style="fill:rgb(215,123,104);"/>
                    <clipPath id="_clip2">
                        <rect x="906.269" y="2757.28" width="170.775" height="195.732"/>
                    </clipPath>
                    <g clip-path="url(#_clip2)">
                        <g transform="matrix(2.49883,0,0,0.750207,-49060.5,-581.097)">
                            <path d="M20153.9,4286.7C20363.3,4280.12 20380.8,4281.89 20382.9,4408.86C20385.4,4557.94 20355.7,4541.58 20165,4544.77C19956.5,4548.26 19914.9,4579.14 19916.6,4413.72C19918,4272.84 19927.4,4293.81 20153.9,4286.7Z" style="fill:rgb(210,107,86);"/>
                            <path d="M20153.9,4286.7C20363.3,4280.12 20380.8,4281.89 20382.9,4408.86C20385.4,4557.94 20355.7,4541.58 20165,4544.77C19956.5,4548.26 19914.9,4579.14 19916.6,4413.72C19918,4272.84 19927.4,4293.81 20153.9,4286.7ZM20154.6,4307.69C20228.1,4305.38 20277.4,4303.93 20310.5,4309.05C20327.2,4311.63 20338.8,4315.4 20346.4,4323.48C20352.5,4329.99 20355.6,4338.98 20357.7,4350.65C20360.6,4366.03 20361.5,4385.26 20361.9,4409.21C20362.4,4437.38 20361.7,4459.31 20358.8,4476.37C20356.5,4489.43 20353.3,4499.05 20346.9,4505.74C20339.2,4513.91 20327.5,4517.2 20311.4,4519.51C20279,4524.14 20232.1,4522.64 20164.6,4523.77C20090.2,4525.02 20037.3,4529.85 20000.1,4527.78C19980.7,4526.71 19966.5,4524.41 19956.7,4516.22C19949.3,4509.98 19945.2,4500.34 19942.3,4486.8C19938.4,4468.77 19937.3,4445.04 19937.6,4413.93C19937.9,4387.03 19938.4,4366.3 19940.8,4350.31C19942.6,4338.95 19944.9,4330.62 19950.5,4324.95C19957.7,4317.6 19969.3,4315.2 19986.4,4313.18C20021.1,4309.08 20073.9,4310.22 20154.6,4307.69Z" style="fill:rgb(210,106,86);"/>
                        </g>
                    </g>
                </g>
                <g transform="matrix(1,0,0,3.33085,181.711,-8299.46)">
                    <rect x="906.269" y="2757.28" width="170.775" height="195.732" style="fill:rgb(216,165,105);"/>
                    <clipPath id="_clip3">
                        <rect x="906.269" y="2757.28" width="170.775" height="195.732"/>
                    </clipPath>
                    <g clip-path="url(#_clip3)">
                        <g transform="matrix(2.49883,0,0,0.750207,-49252.6,-581.097)">
                            <path d="M20153.9,4286.7C20363.3,4280.12 20380.8,4281.89 20382.9,4408.86C20385.4,4557.94 20355.7,4541.58 20165,4544.77C19956.5,4548.26 19914.9,4579.14 19916.6,4413.72C19918,4272.84 19927.4,4293.81 20153.9,4286.7Z" style="fill:rgb(211,153,85);"/>
                            <path d="M20153.9,4286.7C20363.3,4280.12 20380.8,4281.89 20382.9,4408.86C20385.4,4557.94 20355.7,4541.58 20165,4544.77C19956.5,4548.26 19914.9,4579.14 19916.6,4413.72C19918,4272.84 19927.4,4293.81 20153.9,4286.7ZM20154.6,4307.69C20228.1,4305.38 20277.4,4303.93 20310.5,4309.05C20327.2,4311.63 20338.8,4315.4 20346.4,4323.48C20352.5,4329.99 20355.6,4338.98 20357.7,4350.65C20360.6,4366.03 20361.5,4385.26 20361.9,4409.21C20362.4,4437.38 20361.7,4459.31 20358.8,4476.37C20356.5,4489.43 20353.3,4499.05 20346.9,4505.74C20339.2,4513.91 20327.5,4517.2 20311.4,4519.51C20279,4524.14 20232.1,4522.64 20164.6,4523.77C20090.2,4525.02 20037.3,4529.85 20000.1,4527.78C19980.7,4526.71 19966.5,4524.41 19956.7,4516.22C19949.3,4509.98 19945.2,4500.34 19942.3,4486.8C19938.4,4468.77 19937.3,4445.04 19937.6,4413.93C19937.9,4387.03 19938.4,4366.3 19940.8,4350.31C19942.6,4338.95 19944.9,4330.62 19950.5,4324.95C19957.7,4317.6 19969.3,4315.2 19986.4,4313.18C20021.1,4309.08 20073.9,4310.22 20154.6,4307.69Z" style="fill:rgb(211,153,85);"/>
                        </g>
                    </g>
                </g>
                <g transform="matrix(1,0,0,3.33085,373.777,-8299.46)">
                    <rect x="906.269" y="2757.28" width="170.775" height="195.732" style="fill:rgb(135,160,134);"/>
                    <clipPath id="_clip4">
                        <rect x="906.269" y="2757.28" width="170.775" height="195.732"/>
                    </clipPath>
                    <g clip-path="url(#_clip4)">
                        <g transform="matrix(2.49883,0,0,0.750207,-49444.7,-581.097)">
                            <path d="M20153.9,4286.7C20363.3,4280.12 20380.8,4281.89 20382.9,4408.86C20385.4,4557.94 20355.7,4541.58 20165,4544.77C19956.5,4548.26 19914.9,4579.14 19916.6,4413.72C19918,4272.84 19927.4,4293.81 20153.9,4286.7Z" style="fill:rgb(119,147,118);"/>
                            <path d="M20153.9,4286.7C20363.3,4280.12 20380.8,4281.89 20382.9,4408.86C20385.4,4557.94 20355.7,4541.58 20165,4544.77C19956.5,4548.26 19914.9,4579.14 19916.6,4413.72C19918,4272.84 19927.4,4293.81 20153.9,4286.7ZM20154.6,4307.69C20228.1,4305.38 20277.4,4303.93 20310.5,4309.05C20327.2,4311.63 20338.8,4315.4 20346.4,4323.48C20352.5,4329.99 20355.6,4338.98 20357.7,4350.65C20360.6,4366.03 20361.5,4385.26 20361.9,4409.21C20362.4,4437.38 20361.7,4459.31 20358.8,4476.37C20356.5,4489.43 20353.3,4499.05 20346.9,4505.74C20339.2,4513.91 20327.5,4517.2 20311.4,4519.51C20279,4524.14 20232.1,4522.64 20164.6,4523.77C20090.2,4525.02 20037.3,4529.85 20000.1,4527.78C19980.7,4526.71 19966.5,4524.41 19956.7,4516.22C19949.3,4509.98 19945.2,4500.34 19942.3,4486.8C19938.4,4468.77 19937.3,4445.04 19937.6,4413.93C19937.9,4387.03 19938.4,4366.3 19940.8,4350.31C19942.6,4338.95 19944.9,4330.62 19950.5,4324.95C19957.7,4317.6 19969.3,4315.2 19986.4,4313.18C20021.1,4309.08 20073.9,4310.22 20154.6,4307.69Z" style="fill:rgb(119,147,118);"/>
                        </g>
                    </g>
                </g>
                <g transform="matrix(1,0,0,3.33085,565.843,-8299.46)">
                    <rect x="906.269" y="2757.28" width="170.775" height="195.732" style="fill:rgb(124,148,138);"/>
                    <clipPath id="_clip5">
                        <rect x="906.269" y="2757.28" width="170.775" height="195.732"/>
                    </clipPath>
                    <g clip-path="url(#_clip5)">
                        <g transform="matrix(2.49883,0,0,0.750207,-49636.7,-581.097)">
                            <path d="M20153.9,4286.7C20363.3,4280.12 20380.8,4281.89 20382.9,4408.86C20385.4,4557.94 20355.7,4541.58 20165,4544.77C19956.5,4548.26 19914.9,4579.14 19916.6,4413.72C19918,4272.84 19927.4,4293.81 20153.9,4286.7Z" style="fill:rgb(108,132,122);"/>
                            <path d="M20153.9,4286.7C20363.3,4280.12 20380.8,4281.89 20382.9,4408.86C20385.4,4557.94 20355.7,4541.58 20165,4544.77C19956.5,4548.26 19914.9,4579.14 19916.6,4413.72C19918,4272.84 19927.4,4293.81 20153.9,4286.7ZM20154.6,4307.69C20228.1,4305.38 20277.4,4303.93 20310.5,4309.05C20327.2,4311.63 20338.8,4315.4 20346.4,4323.48C20352.5,4329.99 20355.6,4338.98 20357.7,4350.65C20360.6,4366.03 20361.5,4385.26 20361.9,4409.21C20362.4,4437.38 20361.7,4459.31 20358.8,4476.37C20356.5,4489.43 20353.3,4499.05 20346.9,4505.74C20339.2,4513.91 20327.5,4517.2 20311.4,4519.51C20279,4524.14 20232.1,4522.64 20164.6,4523.77C20090.2,4525.02 20037.3,4529.85 20000.1,4527.78C19980.7,4526.71 19966.5,4524.41 19956.7,4516.22C19949.3,4509.98 19945.2,4500.34 19942.3,4486.8C19938.4,4468.77 19937.3,4445.04 19937.6,4413.93C19937.9,4387.03 19938.4,4366.3 19940.8,4350.31C19942.6,4338.95 19944.9,4330.62 19950.5,4324.95C19957.7,4317.6 19969.3,4315.2 19986.4,4313.18C20021.1,4309.08 20073.9,4310.22 20154.6,4307.69Z" style="fill:rgb(108,132,122);"/>
                        </g>
                    </g>
                </g>
                <g transform="matrix(2.49883,0,0,25.8145,-2596.56,-10318.4)">
                    <g transform="matrix(1,0,0,0.0967995,-18598.4,0)">
                        <path d="M20020.8,4537.67L20034.9,4503.47L20261.9,4500.34L20281.7,4531.86L20333.3,4527.43L20360.4,4511.72L20370.8,4475.34L20373.9,4428.99L20372.9,4378.76L20365.6,4334.72L20345.8,4308.16L20300,4298.26L20234.3,4295.14L20155.2,4298.26L20088.5,4297.74L20029.1,4300.34L19959.9,4308.16L19934.9,4330.03L19928.6,4365.12L19927.6,4403.99L19926.5,4447.22L19933.3,4490.45L19945.8,4518.57L19972.4,4537.67L20020.8,4537.67Z" style="fill:rgb(217,132,115);"/>
                        <clipPath id="_clip6">
                            <path d="M20020.8,4537.67L20034.9,4503.47L20261.9,4500.34L20281.7,4531.86L20333.3,4527.43L20360.4,4511.72L20370.8,4475.34L20373.9,4428.99L20372.9,4378.76L20365.6,4334.72L20345.8,4308.16L20300,4298.26L20234.3,4295.14L20155.2,4298.26L20088.5,4297.74L20029.1,4300.34L19959.9,4308.16L19934.9,4330.03L19928.6,4365.12L19927.6,4403.99L19926.5,4447.22L19933.3,4490.45L19945.8,4518.57L19972.4,4537.67L20020.8,4537.67Z"/>
                        </clipPath>
                        <g clip-path="url(#_clip6)">
                            <g transform="matrix(1.81683,0,0,1.83025,-16366.5,-3655.44)">
                                <path d="M19980.1,4431.16C19980.1,4431.16 19979.1,4385.69 20003.6,4375.23C20040.2,4359.68 20156.9,4345.83 20156.9,4345.83L20050.6,4340.23L19984.5,4348.38L19967,4356.22L19967.5,4380.82L19967,4415.13L19980.1,4431.16Z" style="fill:rgb(212,115,95);"/>
                            </g>
                            <path d="M19977.8,4537.67C20009.4,4530.65 19973.2,4486.63 20077.2,4486.88L20056.4,4528.9L20005.8,4539.08L19977.8,4537.67Z" style="fill:rgb(212,115,95);"/>
                            <path d="M20276.8,4524.03C20354.9,4502.33 20360.6,4408.39 20358.1,4312.29L20428.1,4336.55L20420.6,4552.89L20287.7,4552.09L20276.8,4524.03Z" style="fill:rgb(212,115,95);"/>
                        </g>
                    </g>
                    <g transform="matrix(1,0,0,0.0967995,-18598.4,0)">
                        <path d="M19974,4350.01L20011.8,4344.14L20072,4340.66L20133.9,4341.51L20202.2,4340.23L20261.9,4341.09L20319.9,4346.63L20329.3,4370.53L20329.7,4409.96L20323.2,4432.17L20289.8,4439.06L20225.6,4443.06L20154.4,4442.21L20103.4,4442.21L20046,4443.06L19999.1,4440.93L19971.5,4436.08L19967,4409.96L19967.5,4378.76L19974,4350.01Z" style="fill:rgb(160,103,103);"/>
                        <clipPath id="_clip7">
                            <path d="M19974,4350.01L20011.8,4344.14L20072,4340.66L20133.9,4341.51L20202.2,4340.23L20261.9,4341.09L20319.9,4346.63L20329.3,4370.53L20329.7,4409.96L20323.2,4432.17L20289.8,4439.06L20225.6,4443.06L20154.4,4442.21L20103.4,4442.21L20046,4443.06L19999.1,4440.93L19971.5,4436.08L19967,4409.96L19967.5,4378.76L19974,4350.01Z"/>
                        </clipPath>
                        <g clip-path="url(#_clip7)">
                            <path d="M19980.1,4431.16C19980.1,4431.16 19979.1,4385.69 20003.6,4375.23C20040.2,4359.68 20156.9,4345.83 20156.9,4345.83L20050.6,4340.23L19984.5,4348.38L19967,4356.22L19967.5,4380.82L19967,4415.13L19980.1,4431.16Z" style="fill:rgb(139,87,87);"/>
                            <path d="M20216.9,4432.59C20323.9,4420.14 20318.6,4335.91 20261.9,4341.09L20352.4,4336.02L20356.1,4458.11L20215,4458.11L20216.9,4432.59Z" style="fill:rgb(139,87,87);"/>
                        </g>
                    </g>
                    <g transform="matrix(1,0,0,0.0967995,-18598.4,0)">
                        <path d="M20153.9,4286.7C20363.3,4280.12 20380.8,4281.89 20382.9,4408.86C20385.4,4557.94 20355.7,4541.58 20165,4544.77C19956.5,4548.26 19914.9,4579.14 19916.6,4413.72C19918,4272.84 19927.4,4293.81 20153.9,4286.7ZM20154.6,4307.69C20228.1,4305.38 20277.4,4303.93 20310.5,4309.05C20327.2,4311.63 20338.8,4315.4 20346.4,4323.48C20352.5,4329.99 20355.6,4338.98 20357.7,4350.65C20360.6,4366.03 20361.5,4385.26 20361.9,4409.21C20362.4,4437.38 20361.7,4459.31 20358.8,4476.37C20356.5,4489.43 20353.3,4499.05 20346.9,4505.74C20339.2,4513.91 20327.5,4517.2 20311.4,4519.51C20279,4524.14 20232.1,4522.64 20164.6,4523.77C20090.2,4525.02 20037.3,4529.85 20000.1,4527.78C19980.7,4526.71 19966.5,4524.41 19956.7,4516.22C19949.3,4509.98 19945.2,4500.34 19942.3,4486.8C19938.4,4468.77 19937.3,4445.04 19937.6,4413.93C19937.9,4387.03 19938.4,4366.3 19940.8,4350.31C19942.6,4338.95 19944.9,4330.62 19950.5,4324.95C19957.7,4317.6 19969.3,4315.2 19986.4,4313.18C20021.1,4309.08 20073.9,4310.22 20154.6,4307.69L20154.6,4307.69Z" style="fill:rgb(218,218,218);"/>
                    </g>
                    <g transform="matrix(1,0,0,0.0967995,-18598.4,0)">
                        <path d="M20138.7,4328.3C20344.5,4325.77 20338.1,4320.4 20338.9,4393.92C20339.6,4456.8 20346.8,4450.32 20130,4451.22C19950.5,4451.95 19955.5,4458.42 19956.1,4396.53C19956.7,4325.14 19948.3,4330.64 20138.7,4328.3ZM19978.2,4425.95C19977.9,4424.76 19977.3,4421.34 19977.1,4418.86C19976.8,4412.77 19977,4405.47 19977.1,4396.71C19977.2,4384.83 19977,4375.19 19977.6,4367.36C19977.9,4363.61 19977.9,4360.54 19979.5,4358.32C19981.2,4355.89 19984.6,4355.62 19989.5,4354.59C19996.5,4353.11 20005.4,4352.2 20016.6,4351.54C20043.4,4349.98 20082.3,4349.99 20139,4349.3C20219.9,4348.3 20267.5,4346.73 20295.4,4349.99C20305.2,4351.13 20311.5,4351.48 20314.8,4355.25C20316.6,4357.27 20316.6,4360.2 20317,4363.73C20317.9,4371.78 20317.8,4381.77 20317.9,4394.15C20318,4403.02 20318.3,4410.41 20317.9,4416.58C20317.7,4419.34 20317.8,4421.65 20316.8,4423.42C20316.2,4424.53 20314.6,4424.37 20312.8,4424.92C20308.3,4426.28 20302.6,4427.16 20295.4,4427.87C20265.9,4430.75 20215.6,4429.86 20130,4430.22C20059.3,4430.51 20017.7,4431.8 19993.3,4429.23C19988.9,4428.76 19985.2,4428.19 19982.1,4427.38C19980.8,4427.03 19979,4426.29 19978.2,4425.95Z" style="fill:rgb(218,218,218);"/>
                    </g>
                    <g transform="matrix(1,0,0,0.0967995,-18598.4,0)">
                        <path d="M20014.4,4515.51C20029.6,4482.45 20019.4,4487.45 20147.5,4486.76C20274.3,4486.08 20263.5,4479.94 20277.3,4508.85C20282,4518.67 20287.7,4531.75 20287.7,4531.75L20143.3,4534.26L20003.8,4537.67C20003.8,4537.67 20009.3,4526.62 20014.4,4515.51Z" style="fill:rgb(218,218,218);"/>
                        <clipPath id="_clip8">
                            <path d="M20014.4,4515.51C20029.6,4482.45 20019.4,4487.45 20147.5,4486.76C20274.3,4486.08 20263.5,4479.94 20277.3,4508.85C20282,4518.67 20287.7,4531.75 20287.7,4531.75L20143.3,4534.26L20003.8,4537.67C20003.8,4537.67 20009.3,4526.62 20014.4,4515.51Z"/>
                        </clipPath>
                        <g clip-path="url(#_clip8)">
                            <path d="M20008.6,4527.8C20034.7,4525.74 20038.8,4511.56 20068.7,4503C20101.1,4493.71 20138.3,4491.05 20220.8,4485.76L20003.8,4468.29L20008.6,4527.8Z" style="fill:rgb(206,206,206);"/>
                        </g>
                    </g>
                    <g transform="matrix(1,0,0,0.0967995,-18598.4,0)">
                        <path d="M20108.1,4380.82L20081.2,4383.5L20076.8,4398.77L20091.7,4409.96L20108.5,4409.96L20108.1,4380.82Z" style="fill:rgb(217,132,115);"/>
                    </g>
                    <g transform="matrix(-1.22355,0,0,0.0967995,26177.2,0)">
                        <path d="M20108.1,4380.82L20081.2,4383.5L20076.8,4398.77L20091.7,4409.96L20108.5,4409.96L20108.1,4380.82Z" style="fill:rgb(217,132,115);"/>
                    </g>
                    <g transform="matrix(1,0,0,0.0967995,-18598.4,0)">
                        <path d="M20138.7,4365.16C20200.2,4364.4 20224.6,4372.94 20225.6,4394.23C20226.9,4422.68 20176.2,4422.19 20142.1,4422.67C20092.3,4423.37 20064.8,4420.46 20065.3,4395.3C20065.9,4362.04 20114.6,4365.47 20138.7,4365.16ZM20204.4,4394.34C20203.8,4394.74 20202.9,4395.27 20202.2,4395.56C20199.5,4396.78 20196.3,4397.66 20192.8,4398.38C20177.3,4401.62 20157.6,4401.45 20141.8,4401.67C20123.4,4401.93 20108.3,4401.78 20096.8,4399.87C20094.2,4399.44 20091.8,4398.91 20089.7,4398.23C20088,4397.66 20086.2,4397.48 20086.3,4395.71C20086.4,4389.95 20092.4,4389.54 20097.7,4388.39C20111.5,4385.36 20128,4386.3 20139,4386.16C20166.4,4385.82 20185.7,4387.12 20198.1,4391.32C20201.1,4392.33 20203.7,4392.54 20204.4,4394.34Z" style="fill:rgb(218,218,218);"/>
                    </g>
                    <g transform="matrix(1,0,0,0.0967995,-18598.4,0)">
                        <path d="M20110.6,4378.76L20108.8,4409.96" style="fill:none;stroke:rgb(218,218,218);stroke-width:21px;"/>
                    </g>
                    <g transform="matrix(0.987464,-0.0152792,0.157844,0.095586,-18984,312.597)">
                        <path d="M20110.6,4378.76L20108.8,4409.96" style="fill:none;stroke:rgb(218,218,218);stroke-width:21px;"/>
                    </g>
                </g>
            </g>
        </g>
    </g>
</svg>
